G75*
%MOIN*%
%OFA0B0*%
%FSLAX25Y25*%
%IPPOS*%
%LPD*%
%AMOC8*
5,1,8,0,0,1.08239X$1,22.5*
%
%ADD10C,0.00000*%
%ADD11C,0.00591*%
%ADD12C,0.00984*%
%ADD13R,0.07087X0.06299*%
%ADD14R,0.02500X0.05000*%
%ADD15R,0.05000X0.02500*%
%ADD16R,0.09843X0.07677*%
%ADD17R,0.16000X0.06000*%
%ADD18R,0.08000X0.04000*%
%ADD19C,0.00800*%
%ADD20OC8,0.06000*%
%ADD21R,0.03150X0.03150*%
%ADD22C,0.01800*%
%ADD23C,0.00600*%
%ADD24C,0.04309*%
%ADD25C,0.02400*%
%ADD26C,0.01600*%
%ADD27C,0.01200*%
%ADD28C,0.01000*%
D10*
X0007400Y0007400D02*
X0007400Y0080400D01*
X0123687Y0080400D01*
X0123687Y0007400D01*
X0007400Y0007400D01*
D11*
X0063786Y0021046D02*
X0063786Y0022424D01*
X0063786Y0021046D02*
X0062014Y0021046D01*
X0062014Y0022424D01*
X0063786Y0022424D01*
X0063786Y0021636D02*
X0062014Y0021636D01*
X0062014Y0022226D02*
X0063786Y0022226D01*
X0063786Y0025376D02*
X0063786Y0026754D01*
X0063786Y0025376D02*
X0062014Y0025376D01*
X0062014Y0026754D01*
X0063786Y0026754D01*
X0063786Y0025966D02*
X0062014Y0025966D01*
X0062014Y0026556D02*
X0063786Y0026556D01*
X0065546Y0028014D02*
X0066924Y0028014D01*
X0065546Y0028014D02*
X0065546Y0029786D01*
X0066924Y0029786D01*
X0066924Y0028014D01*
X0066924Y0028604D02*
X0065546Y0028604D01*
X0065546Y0029194D02*
X0066924Y0029194D01*
X0066924Y0029784D02*
X0065546Y0029784D01*
X0069876Y0028014D02*
X0071254Y0028014D01*
X0069876Y0028014D02*
X0069876Y0029786D01*
X0071254Y0029786D01*
X0071254Y0028014D01*
X0071254Y0028604D02*
X0069876Y0028604D01*
X0069876Y0029194D02*
X0071254Y0029194D01*
X0071254Y0029784D02*
X0069876Y0029784D01*
X0074786Y0026754D02*
X0074786Y0025376D01*
X0073014Y0025376D01*
X0073014Y0026754D01*
X0074786Y0026754D01*
X0074786Y0025966D02*
X0073014Y0025966D01*
X0073014Y0026556D02*
X0074786Y0026556D01*
X0074786Y0022424D02*
X0074786Y0021046D01*
X0073014Y0021046D01*
X0073014Y0022424D01*
X0074786Y0022424D01*
X0074786Y0021636D02*
X0073014Y0021636D01*
X0073014Y0022226D02*
X0074786Y0022226D01*
X0103421Y0017786D02*
X0104799Y0017786D01*
X0104799Y0016014D01*
X0103421Y0016014D01*
X0103421Y0017786D01*
X0103421Y0016604D02*
X0104799Y0016604D01*
X0104799Y0017194D02*
X0103421Y0017194D01*
X0103421Y0017784D02*
X0104799Y0017784D01*
X0107751Y0017786D02*
X0109129Y0017786D01*
X0109129Y0016014D01*
X0107751Y0016014D01*
X0107751Y0017786D01*
X0107751Y0016604D02*
X0109129Y0016604D01*
X0109129Y0017194D02*
X0107751Y0017194D01*
X0107751Y0017784D02*
X0109129Y0017784D01*
X0109254Y0070786D02*
X0107876Y0070786D01*
X0109254Y0070786D02*
X0109254Y0069014D01*
X0107876Y0069014D01*
X0107876Y0070786D01*
X0107876Y0069604D02*
X0109254Y0069604D01*
X0109254Y0070194D02*
X0107876Y0070194D01*
X0107876Y0070784D02*
X0109254Y0070784D01*
X0104924Y0070786D02*
X0103546Y0070786D01*
X0104924Y0070786D02*
X0104924Y0069014D01*
X0103546Y0069014D01*
X0103546Y0070786D01*
X0103546Y0069604D02*
X0104924Y0069604D01*
X0104924Y0070194D02*
X0103546Y0070194D01*
X0103546Y0070784D02*
X0104924Y0070784D01*
D12*
X0115321Y0070392D02*
X0115321Y0069408D01*
X0114337Y0069408D01*
X0114337Y0070392D01*
X0115321Y0070392D01*
X0115321Y0070391D02*
X0114337Y0070391D01*
X0118963Y0070392D02*
X0118963Y0069408D01*
X0117979Y0069408D01*
X0117979Y0070392D01*
X0118963Y0070392D01*
X0118963Y0070391D02*
X0117979Y0070391D01*
X0118838Y0017392D02*
X0118838Y0016408D01*
X0117854Y0016408D01*
X0117854Y0017392D01*
X0118838Y0017392D01*
X0118838Y0017391D02*
X0117854Y0017391D01*
X0115196Y0017392D02*
X0115196Y0016408D01*
X0114212Y0016408D01*
X0114212Y0017392D01*
X0115196Y0017392D01*
X0115196Y0017391D02*
X0114212Y0017391D01*
D13*
X0055900Y0017388D03*
X0055900Y0028412D03*
D14*
X0063900Y0033971D03*
X0068900Y0033971D03*
X0073900Y0033971D03*
X0078900Y0033971D03*
X0083900Y0033971D03*
X0083900Y0073829D03*
X0078900Y0073829D03*
X0073900Y0073829D03*
X0068900Y0073829D03*
X0063900Y0073829D03*
D15*
X0053971Y0063900D03*
X0053971Y0058900D03*
X0053971Y0053900D03*
X0053971Y0048900D03*
X0053971Y0043900D03*
X0093829Y0043900D03*
X0093829Y0048900D03*
X0093829Y0053900D03*
X0093829Y0058900D03*
X0093829Y0063900D03*
D16*
X0038400Y0036404D03*
X0038400Y0024396D03*
D17*
X0115400Y0033900D03*
X0115400Y0053900D03*
D18*
X0111400Y0043900D03*
D19*
X0111200Y0048094D02*
X0119400Y0048094D01*
X0119400Y0056400D01*
X0111200Y0056400D01*
X0111200Y0048094D01*
X0111200Y0048438D02*
X0119400Y0048438D01*
X0119400Y0049236D02*
X0111200Y0049236D01*
X0111200Y0050035D02*
X0119400Y0050035D01*
X0119400Y0050833D02*
X0111200Y0050833D01*
X0111200Y0051632D02*
X0119400Y0051632D01*
X0119400Y0052430D02*
X0111200Y0052430D01*
X0111200Y0053229D02*
X0119400Y0053229D01*
X0119400Y0054027D02*
X0111200Y0054027D01*
X0111200Y0054826D02*
X0119400Y0054826D01*
X0119400Y0055624D02*
X0111200Y0055624D01*
X0115000Y0056400D02*
X0115000Y0058300D01*
X0107216Y0058300D01*
X0106860Y0058205D01*
X0106540Y0058020D01*
X0097729Y0058020D01*
X0097729Y0058818D02*
X0121787Y0058818D01*
X0121787Y0058300D02*
X0115800Y0058300D01*
X0115800Y0056400D01*
X0115000Y0056400D01*
X0115000Y0056423D02*
X0115800Y0056423D01*
X0115800Y0057221D02*
X0115000Y0057221D01*
X0115000Y0058020D02*
X0115800Y0058020D01*
X0121787Y0058300D02*
X0121787Y0078500D01*
X0009300Y0078500D01*
X0009300Y0009300D01*
X0121787Y0009300D01*
X0121787Y0029500D01*
X0115800Y0029500D01*
X0115800Y0031400D01*
X0115000Y0031400D01*
X0115000Y0029500D01*
X0107216Y0029500D01*
X0106860Y0029595D01*
X0106540Y0029780D01*
X0106280Y0030040D01*
X0106095Y0030360D01*
X0106000Y0030716D01*
X0106000Y0031400D01*
X0093900Y0031400D01*
X0093900Y0041250D01*
X0090749Y0041250D01*
X0089929Y0042070D01*
X0089929Y0045730D01*
X0090634Y0046435D01*
X0090470Y0046530D01*
X0090209Y0046790D01*
X0090025Y0047110D01*
X0089929Y0047466D01*
X0089929Y0048675D01*
X0093604Y0048675D01*
X0093604Y0049125D01*
X0089929Y0049125D01*
X0089929Y0050334D01*
X0090025Y0050690D01*
X0090209Y0051010D01*
X0090470Y0051270D01*
X0090634Y0051365D01*
X0089929Y0052070D01*
X0089929Y0055730D01*
X0090599Y0056400D01*
X0089929Y0057070D01*
X0089929Y0057100D01*
X0088646Y0057100D01*
X0079700Y0048154D01*
X0078646Y0047100D01*
X0057871Y0047100D01*
X0057871Y0047070D01*
X0057201Y0046400D01*
X0057871Y0045730D01*
X0057871Y0042070D01*
X0057051Y0041250D01*
X0050891Y0041250D01*
X0050071Y0042070D01*
X0050071Y0042100D01*
X0048154Y0042100D01*
X0047100Y0043154D01*
X0043154Y0047100D01*
X0032381Y0047100D01*
X0037838Y0041643D01*
X0043901Y0041643D01*
X0044721Y0040822D01*
X0044721Y0038256D01*
X0050957Y0032020D01*
X0050957Y0032141D01*
X0051777Y0032961D01*
X0060023Y0032961D01*
X0060843Y0032141D01*
X0060843Y0030955D01*
X0061250Y0031361D01*
X0061250Y0037051D01*
X0062070Y0037871D01*
X0065730Y0037871D01*
X0066435Y0037166D01*
X0066530Y0037330D01*
X0066790Y0037591D01*
X0067110Y0037775D01*
X0067466Y0037871D01*
X0068675Y0037871D01*
X0068675Y0034196D01*
X0069125Y0034196D01*
X0069125Y0037871D01*
X0070334Y0037871D01*
X0070690Y0037775D01*
X0071010Y0037591D01*
X0071270Y0037330D01*
X0071365Y0037166D01*
X0072070Y0037871D01*
X0072100Y0037871D01*
X0072100Y0038154D01*
X0070654Y0039600D01*
X0062146Y0039600D01*
X0060700Y0038154D01*
X0059646Y0037100D01*
X0052853Y0037100D01*
X0052353Y0036600D01*
X0050447Y0036600D01*
X0049100Y0037947D01*
X0049100Y0039853D01*
X0050447Y0041200D01*
X0052353Y0041200D01*
X0052853Y0040700D01*
X0058154Y0040700D01*
X0060654Y0043200D01*
X0072146Y0043200D01*
X0073200Y0042146D01*
X0075700Y0039646D01*
X0075700Y0037871D01*
X0075730Y0037871D01*
X0076400Y0037201D01*
X0077070Y0037871D01*
X0080730Y0037871D01*
X0081400Y0037201D01*
X0082070Y0037871D01*
X0085730Y0037871D01*
X0086550Y0037051D01*
X0086550Y0030891D01*
X0085730Y0030071D01*
X0082070Y0030071D01*
X0081400Y0030741D01*
X0080730Y0030071D01*
X0077070Y0030071D01*
X0076400Y0030741D01*
X0075730Y0030071D01*
X0075700Y0030071D01*
X0075700Y0028238D01*
X0076481Y0027457D01*
X0076481Y0024674D01*
X0075675Y0023868D01*
X0075827Y0023780D01*
X0076142Y0023465D01*
X0076366Y0023078D01*
X0076481Y0022647D01*
X0076481Y0021827D01*
X0073992Y0021827D01*
X0073992Y0021642D01*
X0073992Y0019350D01*
X0075009Y0019350D01*
X0075440Y0019466D01*
X0075827Y0019689D01*
X0076142Y0020005D01*
X0076366Y0020391D01*
X0076481Y0020822D01*
X0076481Y0021642D01*
X0073992Y0021642D01*
X0073808Y0021642D01*
X0073808Y0019350D01*
X0072791Y0019350D01*
X0072360Y0019466D01*
X0071973Y0019689D01*
X0071658Y0020005D01*
X0071434Y0020391D01*
X0071319Y0020822D01*
X0071319Y0021642D01*
X0073808Y0021642D01*
X0073808Y0021827D01*
X0071319Y0021827D01*
X0071319Y0022647D01*
X0071434Y0023078D01*
X0071658Y0023465D01*
X0071973Y0023780D01*
X0072125Y0023868D01*
X0071319Y0024674D01*
X0071319Y0026319D01*
X0069174Y0026319D01*
X0068400Y0027093D01*
X0067626Y0026319D01*
X0065481Y0026319D01*
X0065481Y0024674D01*
X0064675Y0023868D01*
X0064827Y0023780D01*
X0065142Y0023465D01*
X0065366Y0023078D01*
X0065481Y0022647D01*
X0065481Y0021827D01*
X0062992Y0021827D01*
X0062992Y0021642D01*
X0062992Y0019350D01*
X0064009Y0019350D01*
X0064440Y0019466D01*
X0064827Y0019689D01*
X0065142Y0020005D01*
X0065366Y0020391D01*
X0065481Y0020822D01*
X0065481Y0021642D01*
X0062992Y0021642D01*
X0062808Y0021642D01*
X0062808Y0019350D01*
X0061791Y0019350D01*
X0061360Y0019466D01*
X0060973Y0019689D01*
X0060843Y0019819D01*
X0060843Y0017788D01*
X0056300Y0017788D01*
X0056300Y0016988D01*
X0056300Y0012839D01*
X0059628Y0012839D01*
X0059984Y0012934D01*
X0060303Y0013118D01*
X0060564Y0013379D01*
X0060748Y0013698D01*
X0060843Y0014054D01*
X0060843Y0016988D01*
X0056300Y0016988D01*
X0055500Y0016988D01*
X0055500Y0012839D01*
X0052172Y0012839D01*
X0051816Y0012934D01*
X0051497Y0013118D01*
X0051236Y0013379D01*
X0051052Y0013698D01*
X0050957Y0014054D01*
X0050957Y0016988D01*
X0055500Y0016988D01*
X0055500Y0017788D01*
X0050957Y0017788D01*
X0050957Y0020722D01*
X0051052Y0021078D01*
X0051236Y0021397D01*
X0051497Y0021658D01*
X0051816Y0021842D01*
X0052172Y0021938D01*
X0055500Y0021938D01*
X0055500Y0017788D01*
X0056300Y0017788D01*
X0056300Y0021938D01*
X0059628Y0021938D01*
X0059984Y0021842D01*
X0060303Y0021658D01*
X0060319Y0021642D01*
X0060319Y0021642D01*
X0062808Y0021642D01*
X0062808Y0021827D01*
X0060319Y0021827D01*
X0060319Y0022647D01*
X0060434Y0023078D01*
X0060658Y0023465D01*
X0060973Y0023780D01*
X0061125Y0023868D01*
X0060577Y0024416D01*
X0060023Y0023862D01*
X0051777Y0023862D01*
X0050957Y0024682D01*
X0050957Y0025800D01*
X0050383Y0025800D01*
X0049427Y0026196D01*
X0048696Y0026927D01*
X0044179Y0031444D01*
X0043901Y0031165D01*
X0032899Y0031165D01*
X0032079Y0031985D01*
X0032079Y0040048D01*
X0029827Y0042300D01*
X0028300Y0042300D01*
X0028300Y0042077D01*
X0025723Y0039500D01*
X0022077Y0039500D01*
X0019500Y0042077D01*
X0019500Y0045723D01*
X0020877Y0047100D01*
X0019646Y0047100D01*
X0018284Y0045738D01*
X0018300Y0045723D01*
X0018300Y0042077D01*
X0015723Y0039500D01*
X0012077Y0039500D01*
X0009500Y0042077D01*
X0009500Y0045723D01*
X0012077Y0048300D01*
X0015723Y0048300D01*
X0015738Y0048284D01*
X0017100Y0049646D01*
X0018154Y0050700D01*
X0020877Y0050700D01*
X0019500Y0052077D01*
X0019500Y0055723D01*
X0022077Y0058300D01*
X0025723Y0058300D01*
X0028300Y0055723D01*
X0028300Y0052077D01*
X0026923Y0050700D01*
X0044646Y0050700D01*
X0049646Y0045700D01*
X0050071Y0045700D01*
X0050071Y0045730D01*
X0050741Y0046400D01*
X0050071Y0047070D01*
X0050071Y0050730D01*
X0050741Y0051400D01*
X0050071Y0052070D01*
X0050071Y0055730D01*
X0050741Y0056400D01*
X0050071Y0057070D01*
X0050071Y0060730D01*
X0050776Y0061435D01*
X0050611Y0061530D01*
X0050351Y0061790D01*
X0050166Y0062110D01*
X0050071Y0062466D01*
X0050071Y0063675D01*
X0053746Y0063675D01*
X0053746Y0064125D01*
X0053746Y0066550D01*
X0051287Y0066550D01*
X0050930Y0066455D01*
X0050611Y0066270D01*
X0050351Y0066010D01*
X0050166Y0065690D01*
X0050071Y0065334D01*
X0050071Y0064125D01*
X0053746Y0064125D01*
X0054196Y0064125D01*
X0057871Y0064125D01*
X0057871Y0065334D01*
X0057775Y0065690D01*
X0057591Y0066010D01*
X0057330Y0066270D01*
X0057011Y0066455D01*
X0056655Y0066550D01*
X0054196Y0066550D01*
X0054196Y0064125D01*
X0054196Y0063675D01*
X0057871Y0063675D01*
X0057871Y0062466D01*
X0057775Y0062110D01*
X0057591Y0061790D01*
X0057330Y0061530D01*
X0057166Y0061435D01*
X0057871Y0060730D01*
X0057871Y0057070D01*
X0057201Y0056400D01*
X0057871Y0055730D01*
X0057871Y0052070D01*
X0057201Y0051400D01*
X0057871Y0050730D01*
X0057871Y0050700D01*
X0077154Y0050700D01*
X0087154Y0060700D01*
X0089929Y0060700D01*
X0089929Y0060730D01*
X0090599Y0061400D01*
X0089929Y0062070D01*
X0089929Y0062100D01*
X0082146Y0062100D01*
X0073700Y0053654D01*
X0073700Y0052947D01*
X0072353Y0051600D01*
X0070447Y0051600D01*
X0069100Y0052947D01*
X0069100Y0054853D01*
X0070447Y0056200D01*
X0071154Y0056200D01*
X0080654Y0065700D01*
X0089929Y0065700D01*
X0089929Y0065730D01*
X0090749Y0066550D01*
X0096909Y0066550D01*
X0097729Y0065730D01*
X0097729Y0062070D01*
X0097059Y0061400D01*
X0097729Y0060730D01*
X0097729Y0057070D01*
X0097059Y0056400D01*
X0106000Y0056400D01*
X0106000Y0057084D01*
X0106095Y0057440D01*
X0106280Y0057760D01*
X0106540Y0058020D01*
X0106037Y0057221D02*
X0097729Y0057221D01*
X0097082Y0056423D02*
X0106000Y0056423D01*
X0097729Y0059617D02*
X0121787Y0059617D01*
X0121787Y0060415D02*
X0097729Y0060415D01*
X0097245Y0061214D02*
X0121787Y0061214D01*
X0121787Y0062012D02*
X0097671Y0062012D01*
X0097729Y0062811D02*
X0121787Y0062811D01*
X0121787Y0063609D02*
X0097729Y0063609D01*
X0097729Y0064408D02*
X0121787Y0064408D01*
X0121787Y0065206D02*
X0097729Y0065206D01*
X0097454Y0066005D02*
X0121787Y0066005D01*
X0121787Y0066803D02*
X0085056Y0066803D01*
X0084853Y0066600D02*
X0082947Y0066600D01*
X0081600Y0067947D01*
X0081600Y0069853D01*
X0081873Y0070126D01*
X0081400Y0070599D01*
X0080730Y0069929D01*
X0080700Y0069929D01*
X0080700Y0069154D01*
X0080200Y0068654D01*
X0080200Y0067947D01*
X0078853Y0066600D01*
X0076947Y0066600D01*
X0075700Y0067847D01*
X0075700Y0065353D01*
X0076200Y0064853D01*
X0076200Y0062947D01*
X0074853Y0061600D01*
X0072947Y0061600D01*
X0071600Y0062947D01*
X0071600Y0064853D01*
X0072100Y0065353D01*
X0072100Y0069929D01*
X0072070Y0069929D01*
X0071400Y0070599D01*
X0070730Y0069929D01*
X0069975Y0069929D01*
X0067146Y0067100D01*
X0026923Y0067100D01*
X0028300Y0065723D01*
X0028300Y0062077D01*
X0025723Y0059500D01*
X0022077Y0059500D01*
X0019500Y0062077D01*
X0019500Y0065723D01*
X0020877Y0067100D01*
X0019646Y0067100D01*
X0018284Y0065738D01*
X0018300Y0065723D01*
X0018300Y0062077D01*
X0015723Y0059500D01*
X0012077Y0059500D01*
X0009500Y0062077D01*
X0009500Y0065723D01*
X0012077Y0068300D01*
X0015723Y0068300D01*
X0015738Y0068284D01*
X0017100Y0069646D01*
X0018154Y0070700D01*
X0020877Y0070700D01*
X0019500Y0072077D01*
X0019500Y0075723D01*
X0022077Y0078300D01*
X0025723Y0078300D01*
X0028300Y0075723D01*
X0028300Y0075700D01*
X0061250Y0075700D01*
X0061250Y0076909D01*
X0062070Y0077729D01*
X0065730Y0077729D01*
X0066400Y0077059D01*
X0067070Y0077729D01*
X0070730Y0077729D01*
X0071400Y0077059D01*
X0072070Y0077729D01*
X0075730Y0077729D01*
X0076400Y0077059D01*
X0077070Y0077729D01*
X0080730Y0077729D01*
X0081400Y0077059D01*
X0082070Y0077729D01*
X0085730Y0077729D01*
X0086550Y0076909D01*
X0086550Y0070749D01*
X0085927Y0070126D01*
X0086200Y0069853D01*
X0086200Y0067947D01*
X0084853Y0066600D01*
X0085855Y0067602D02*
X0100695Y0067602D01*
X0100697Y0067600D02*
X0102562Y0067600D01*
X0102843Y0067319D01*
X0105626Y0067319D01*
X0106400Y0068093D01*
X0107174Y0067319D01*
X0109957Y0067319D01*
X0110638Y0068000D01*
X0113069Y0068000D01*
X0113553Y0067516D01*
X0116105Y0067516D01*
X0116650Y0068061D01*
X0116817Y0067894D01*
X0117248Y0067645D01*
X0117730Y0067516D01*
X0118379Y0067516D01*
X0118379Y0069808D01*
X0118563Y0069808D01*
X0118563Y0069992D01*
X0120855Y0069992D01*
X0120855Y0070641D01*
X0120726Y0071122D01*
X0120477Y0071554D01*
X0120125Y0071906D01*
X0119693Y0072155D01*
X0119212Y0072284D01*
X0118563Y0072284D01*
X0118563Y0069992D01*
X0118379Y0069992D01*
X0118379Y0072284D01*
X0117730Y0072284D01*
X0117248Y0072155D01*
X0116817Y0071906D01*
X0116650Y0071739D01*
X0116105Y0072284D01*
X0113553Y0072284D01*
X0113069Y0071800D01*
X0110638Y0071800D01*
X0109957Y0072481D01*
X0107174Y0072481D01*
X0106400Y0071707D01*
X0105626Y0072481D01*
X0102843Y0072481D01*
X0102562Y0072200D01*
X0100697Y0072200D01*
X0099350Y0070853D01*
X0099350Y0068947D01*
X0100697Y0067600D01*
X0099897Y0068401D02*
X0086200Y0068401D01*
X0086200Y0069199D02*
X0099350Y0069199D01*
X0099350Y0069998D02*
X0086055Y0069998D01*
X0086550Y0070796D02*
X0099350Y0070796D01*
X0100092Y0071595D02*
X0086550Y0071595D01*
X0086550Y0072393D02*
X0102755Y0072393D01*
X0105714Y0072393D02*
X0107086Y0072393D01*
X0110045Y0072393D02*
X0121787Y0072393D01*
X0121787Y0071595D02*
X0120436Y0071595D01*
X0120814Y0070796D02*
X0121787Y0070796D01*
X0121787Y0069998D02*
X0120855Y0069998D01*
X0120855Y0069808D02*
X0118563Y0069808D01*
X0118563Y0067516D01*
X0119212Y0067516D01*
X0119693Y0067645D01*
X0120125Y0067894D01*
X0120477Y0068246D01*
X0120726Y0068678D01*
X0120855Y0069159D01*
X0120855Y0069808D01*
X0120855Y0069199D02*
X0121787Y0069199D01*
X0121787Y0068401D02*
X0120566Y0068401D01*
X0119534Y0067602D02*
X0121787Y0067602D01*
X0118563Y0067602D02*
X0118379Y0067602D01*
X0118379Y0068401D02*
X0118563Y0068401D01*
X0118563Y0069199D02*
X0118379Y0069199D01*
X0118379Y0069998D02*
X0118563Y0069998D01*
X0118563Y0070796D02*
X0118379Y0070796D01*
X0118379Y0071595D02*
X0118563Y0071595D01*
X0121787Y0073192D02*
X0086550Y0073192D01*
X0086550Y0073990D02*
X0121787Y0073990D01*
X0121787Y0074789D02*
X0086550Y0074789D01*
X0086550Y0075587D02*
X0121787Y0075587D01*
X0121787Y0076386D02*
X0086550Y0076386D01*
X0086275Y0077184D02*
X0121787Y0077184D01*
X0121787Y0077983D02*
X0026040Y0077983D01*
X0026838Y0077184D02*
X0061525Y0077184D01*
X0061250Y0076386D02*
X0027637Y0076386D01*
X0023900Y0073900D02*
X0063829Y0073900D01*
X0063900Y0073829D01*
X0061250Y0072100D02*
X0061250Y0070749D01*
X0061299Y0070700D01*
X0026923Y0070700D01*
X0028300Y0072077D01*
X0028300Y0072100D01*
X0061250Y0072100D01*
X0061250Y0071595D02*
X0027817Y0071595D01*
X0027019Y0070796D02*
X0061250Y0070796D01*
X0066400Y0068900D02*
X0068900Y0071400D01*
X0068900Y0073829D01*
X0066525Y0077184D02*
X0066275Y0077184D01*
X0071275Y0077184D02*
X0071525Y0077184D01*
X0073900Y0073829D02*
X0073900Y0063900D01*
X0071600Y0063609D02*
X0057871Y0063609D01*
X0057871Y0062811D02*
X0071736Y0062811D01*
X0072535Y0062012D02*
X0057719Y0062012D01*
X0057387Y0061214D02*
X0076168Y0061214D01*
X0075370Y0060415D02*
X0057871Y0060415D01*
X0057871Y0059617D02*
X0074571Y0059617D01*
X0073773Y0058818D02*
X0057871Y0058818D01*
X0057871Y0058020D02*
X0072974Y0058020D01*
X0072176Y0057221D02*
X0057871Y0057221D01*
X0057224Y0056423D02*
X0071377Y0056423D01*
X0069872Y0055624D02*
X0057871Y0055624D01*
X0057871Y0054826D02*
X0069100Y0054826D01*
X0069100Y0054027D02*
X0057871Y0054027D01*
X0057871Y0053229D02*
X0069100Y0053229D01*
X0069617Y0052430D02*
X0057871Y0052430D01*
X0057433Y0051632D02*
X0070416Y0051632D01*
X0072384Y0051632D02*
X0078086Y0051632D01*
X0078885Y0052430D02*
X0073183Y0052430D01*
X0073700Y0053229D02*
X0079683Y0053229D01*
X0080482Y0054027D02*
X0074073Y0054027D01*
X0074871Y0054826D02*
X0081280Y0054826D01*
X0082079Y0055624D02*
X0075670Y0055624D01*
X0076468Y0056423D02*
X0082877Y0056423D01*
X0083676Y0057221D02*
X0077267Y0057221D01*
X0078065Y0058020D02*
X0084474Y0058020D01*
X0085273Y0058818D02*
X0078864Y0058818D01*
X0079662Y0059617D02*
X0086071Y0059617D01*
X0086870Y0060415D02*
X0080461Y0060415D01*
X0081259Y0061214D02*
X0090413Y0061214D01*
X0089987Y0062012D02*
X0082058Y0062012D01*
X0081400Y0063900D02*
X0071400Y0053900D01*
X0077288Y0050833D02*
X0057767Y0050833D01*
X0053971Y0048900D02*
X0077900Y0048900D01*
X0087900Y0058900D01*
X0093829Y0058900D01*
X0090576Y0056423D02*
X0087968Y0056423D01*
X0087170Y0055624D02*
X0089929Y0055624D01*
X0089929Y0054826D02*
X0086371Y0054826D01*
X0085573Y0054027D02*
X0089929Y0054027D01*
X0089929Y0053229D02*
X0084774Y0053229D01*
X0083976Y0052430D02*
X0089929Y0052430D01*
X0090367Y0051632D02*
X0083177Y0051632D01*
X0082379Y0050833D02*
X0090107Y0050833D01*
X0089929Y0050035D02*
X0081580Y0050035D01*
X0080782Y0049236D02*
X0089929Y0049236D01*
X0089929Y0048438D02*
X0079983Y0048438D01*
X0079185Y0047639D02*
X0089929Y0047639D01*
X0090180Y0046841D02*
X0057641Y0046841D01*
X0057559Y0046042D02*
X0090241Y0046042D01*
X0089929Y0045244D02*
X0057871Y0045244D01*
X0057871Y0044445D02*
X0089929Y0044445D01*
X0089929Y0043647D02*
X0057871Y0043647D01*
X0057871Y0042848D02*
X0060303Y0042848D01*
X0059504Y0042050D02*
X0057850Y0042050D01*
X0057052Y0041251D02*
X0058706Y0041251D01*
X0058900Y0038900D02*
X0051400Y0038900D01*
X0049100Y0038856D02*
X0044721Y0038856D01*
X0044721Y0039654D02*
X0049100Y0039654D01*
X0049700Y0040453D02*
X0044721Y0040453D01*
X0044293Y0041251D02*
X0050890Y0041251D01*
X0050091Y0042050D02*
X0037431Y0042050D01*
X0036633Y0042848D02*
X0047406Y0042848D01*
X0046608Y0043647D02*
X0035834Y0043647D01*
X0035036Y0044445D02*
X0045809Y0044445D01*
X0045011Y0045244D02*
X0034237Y0045244D01*
X0033439Y0046042D02*
X0044212Y0046042D01*
X0043414Y0046841D02*
X0032640Y0046841D01*
X0027056Y0050833D02*
X0050174Y0050833D01*
X0050071Y0050035D02*
X0045311Y0050035D01*
X0046109Y0049236D02*
X0050071Y0049236D01*
X0050071Y0048438D02*
X0046908Y0048438D01*
X0047706Y0047639D02*
X0050071Y0047639D01*
X0050300Y0046841D02*
X0048505Y0046841D01*
X0049303Y0046042D02*
X0050383Y0046042D01*
X0048900Y0043900D02*
X0053971Y0043900D01*
X0048900Y0043900D02*
X0043900Y0048900D01*
X0018900Y0048900D01*
X0013900Y0043900D01*
X0009820Y0046042D02*
X0009300Y0046042D01*
X0009300Y0045244D02*
X0009500Y0045244D01*
X0009500Y0044445D02*
X0009300Y0044445D01*
X0009300Y0043647D02*
X0009500Y0043647D01*
X0009500Y0042848D02*
X0009300Y0042848D01*
X0009300Y0042050D02*
X0009528Y0042050D01*
X0009300Y0041251D02*
X0010326Y0041251D01*
X0011125Y0040453D02*
X0009300Y0040453D01*
X0009300Y0039654D02*
X0011923Y0039654D01*
X0012077Y0038300D02*
X0009500Y0035723D01*
X0009500Y0032077D01*
X0012077Y0029500D01*
X0015723Y0029500D01*
X0018300Y0032077D01*
X0018300Y0035723D01*
X0015723Y0038300D01*
X0012077Y0038300D01*
X0011835Y0038057D02*
X0009300Y0038057D01*
X0009300Y0037259D02*
X0011036Y0037259D01*
X0010238Y0036460D02*
X0009300Y0036460D01*
X0009300Y0035662D02*
X0009500Y0035662D01*
X0009500Y0034863D02*
X0009300Y0034863D01*
X0009300Y0034065D02*
X0009500Y0034065D01*
X0009500Y0033266D02*
X0009300Y0033266D01*
X0009300Y0032468D02*
X0009500Y0032468D01*
X0009300Y0031669D02*
X0009908Y0031669D01*
X0009300Y0030870D02*
X0010707Y0030870D01*
X0011505Y0030072D02*
X0009300Y0030072D01*
X0009300Y0029273D02*
X0032538Y0029273D01*
X0032619Y0029355D02*
X0032358Y0029094D01*
X0032174Y0028775D01*
X0032079Y0028419D01*
X0032079Y0024796D01*
X0038000Y0024796D01*
X0038000Y0023996D01*
X0038800Y0023996D01*
X0038800Y0019157D01*
X0043506Y0019157D01*
X0043862Y0019253D01*
X0044181Y0019437D01*
X0044442Y0019698D01*
X0044626Y0020017D01*
X0044721Y0020373D01*
X0044721Y0023996D01*
X0038800Y0023996D01*
X0038800Y0024796D01*
X0044721Y0024796D01*
X0044721Y0028419D01*
X0044626Y0028775D01*
X0044442Y0029094D01*
X0044181Y0029355D01*
X0043862Y0029539D01*
X0043506Y0029635D01*
X0038800Y0029635D01*
X0038800Y0024796D01*
X0038000Y0024796D01*
X0038000Y0029635D01*
X0033294Y0029635D01*
X0032938Y0029539D01*
X0032619Y0029355D01*
X0032094Y0028475D02*
X0009300Y0028475D01*
X0009300Y0027676D02*
X0011454Y0027676D01*
X0012077Y0028300D02*
X0009500Y0025723D01*
X0009500Y0024300D01*
X0013500Y0024300D01*
X0013500Y0028300D01*
X0012077Y0028300D01*
X0013500Y0027676D02*
X0014300Y0027676D01*
X0014300Y0028300D02*
X0014300Y0024300D01*
X0013500Y0024300D01*
X0013500Y0023500D01*
X0009500Y0023500D01*
X0009500Y0022077D01*
X0012077Y0019500D01*
X0013500Y0019500D01*
X0013500Y0023500D01*
X0014300Y0023500D01*
X0014300Y0024300D01*
X0018300Y0024300D01*
X0018300Y0025723D01*
X0015723Y0028300D01*
X0014300Y0028300D01*
X0014300Y0026878D02*
X0013500Y0026878D01*
X0013500Y0026079D02*
X0014300Y0026079D01*
X0014300Y0025281D02*
X0013500Y0025281D01*
X0013500Y0024482D02*
X0014300Y0024482D01*
X0014300Y0023684D02*
X0019500Y0023684D01*
X0019500Y0024482D02*
X0018300Y0024482D01*
X0018300Y0025281D02*
X0019500Y0025281D01*
X0019500Y0025723D02*
X0019500Y0022077D01*
X0022077Y0019500D01*
X0025723Y0019500D01*
X0028300Y0022077D01*
X0028300Y0025723D01*
X0025723Y0028300D01*
X0022077Y0028300D01*
X0019500Y0025723D01*
X0019857Y0026079D02*
X0017943Y0026079D01*
X0017145Y0026878D02*
X0020655Y0026878D01*
X0021454Y0027676D02*
X0016346Y0027676D01*
X0016295Y0030072D02*
X0021505Y0030072D01*
X0022077Y0029500D02*
X0025723Y0029500D01*
X0028300Y0032077D01*
X0028300Y0035723D01*
X0025723Y0038300D01*
X0022077Y0038300D01*
X0019500Y0035723D01*
X0019500Y0032077D01*
X0022077Y0029500D01*
X0020707Y0030870D02*
X0017093Y0030870D01*
X0017892Y0031669D02*
X0019908Y0031669D01*
X0019500Y0032468D02*
X0018300Y0032468D01*
X0018300Y0033266D02*
X0019500Y0033266D01*
X0019500Y0034065D02*
X0018300Y0034065D01*
X0018300Y0034863D02*
X0019500Y0034863D01*
X0019500Y0035662D02*
X0018300Y0035662D01*
X0017562Y0036460D02*
X0020238Y0036460D01*
X0021036Y0037259D02*
X0016764Y0037259D01*
X0015965Y0038057D02*
X0021835Y0038057D01*
X0021923Y0039654D02*
X0015877Y0039654D01*
X0016675Y0040453D02*
X0021125Y0040453D01*
X0020326Y0041251D02*
X0017474Y0041251D01*
X0018272Y0042050D02*
X0019528Y0042050D01*
X0019500Y0042848D02*
X0018300Y0042848D01*
X0018300Y0043647D02*
X0019500Y0043647D01*
X0019500Y0044445D02*
X0018300Y0044445D01*
X0018300Y0045244D02*
X0019500Y0045244D01*
X0019820Y0046042D02*
X0018588Y0046042D01*
X0019386Y0046841D02*
X0020618Y0046841D01*
X0017489Y0050035D02*
X0016257Y0050035D01*
X0015723Y0049500D02*
X0018300Y0052077D01*
X0018300Y0053500D01*
X0014300Y0053500D01*
X0014300Y0054300D01*
X0013500Y0054300D01*
X0013500Y0058300D01*
X0012077Y0058300D01*
X0009500Y0055723D01*
X0009500Y0054300D01*
X0013500Y0054300D01*
X0013500Y0053500D01*
X0009500Y0053500D01*
X0009500Y0052077D01*
X0012077Y0049500D01*
X0013500Y0049500D01*
X0013500Y0053500D01*
X0014300Y0053500D01*
X0014300Y0049500D01*
X0015723Y0049500D01*
X0016691Y0049236D02*
X0009300Y0049236D01*
X0009300Y0048438D02*
X0015892Y0048438D01*
X0014300Y0050035D02*
X0013500Y0050035D01*
X0013500Y0050833D02*
X0014300Y0050833D01*
X0014300Y0051632D02*
X0013500Y0051632D01*
X0013500Y0052430D02*
X0014300Y0052430D01*
X0014300Y0053229D02*
X0013500Y0053229D01*
X0013500Y0054027D02*
X0009300Y0054027D01*
X0009300Y0053229D02*
X0009500Y0053229D01*
X0009500Y0052430D02*
X0009300Y0052430D01*
X0009300Y0051632D02*
X0009946Y0051632D01*
X0009300Y0050833D02*
X0010744Y0050833D01*
X0011543Y0050035D02*
X0009300Y0050035D01*
X0009300Y0047639D02*
X0011417Y0047639D01*
X0010618Y0046841D02*
X0009300Y0046841D01*
X0017056Y0050833D02*
X0020744Y0050833D01*
X0019946Y0051632D02*
X0017854Y0051632D01*
X0018300Y0052430D02*
X0019500Y0052430D01*
X0019500Y0053229D02*
X0018300Y0053229D01*
X0018300Y0054300D02*
X0018300Y0055723D01*
X0015723Y0058300D01*
X0014300Y0058300D01*
X0014300Y0054300D01*
X0018300Y0054300D01*
X0018300Y0054826D02*
X0019500Y0054826D01*
X0019500Y0055624D02*
X0018300Y0055624D01*
X0017600Y0056423D02*
X0020200Y0056423D01*
X0020999Y0057221D02*
X0016801Y0057221D01*
X0016003Y0058020D02*
X0021797Y0058020D01*
X0021961Y0059617D02*
X0015839Y0059617D01*
X0016638Y0060415D02*
X0021162Y0060415D01*
X0020364Y0061214D02*
X0017436Y0061214D01*
X0018235Y0062012D02*
X0019565Y0062012D01*
X0019500Y0062811D02*
X0018300Y0062811D01*
X0018300Y0063609D02*
X0019500Y0063609D01*
X0019500Y0064408D02*
X0018300Y0064408D01*
X0018300Y0065206D02*
X0019500Y0065206D01*
X0019782Y0066005D02*
X0018551Y0066005D01*
X0019349Y0066803D02*
X0020581Y0066803D01*
X0018900Y0068900D02*
X0066400Y0068900D01*
X0068446Y0068401D02*
X0072100Y0068401D01*
X0072100Y0069199D02*
X0069245Y0069199D01*
X0070798Y0069998D02*
X0072002Y0069998D01*
X0072100Y0067602D02*
X0067648Y0067602D01*
X0072100Y0066803D02*
X0027219Y0066803D01*
X0028018Y0066005D02*
X0050348Y0066005D01*
X0050071Y0065206D02*
X0028300Y0065206D01*
X0028300Y0064408D02*
X0050071Y0064408D01*
X0050071Y0063609D02*
X0028300Y0063609D01*
X0028300Y0062811D02*
X0050071Y0062811D01*
X0050222Y0062012D02*
X0028235Y0062012D01*
X0027436Y0061214D02*
X0050555Y0061214D01*
X0050071Y0060415D02*
X0026638Y0060415D01*
X0025839Y0059617D02*
X0050071Y0059617D01*
X0050071Y0058818D02*
X0009300Y0058818D01*
X0009300Y0058020D02*
X0011797Y0058020D01*
X0010999Y0057221D02*
X0009300Y0057221D01*
X0009300Y0056423D02*
X0010200Y0056423D01*
X0009500Y0055624D02*
X0009300Y0055624D01*
X0009300Y0054826D02*
X0009500Y0054826D01*
X0013500Y0054826D02*
X0014300Y0054826D01*
X0014300Y0055624D02*
X0013500Y0055624D01*
X0013500Y0056423D02*
X0014300Y0056423D01*
X0014300Y0057221D02*
X0013500Y0057221D01*
X0013500Y0058020D02*
X0014300Y0058020D01*
X0011961Y0059617D02*
X0009300Y0059617D01*
X0009300Y0060415D02*
X0011162Y0060415D01*
X0010364Y0061214D02*
X0009300Y0061214D01*
X0009300Y0062012D02*
X0009565Y0062012D01*
X0009500Y0062811D02*
X0009300Y0062811D01*
X0009300Y0063609D02*
X0009500Y0063609D01*
X0009500Y0064408D02*
X0009300Y0064408D01*
X0009300Y0065206D02*
X0009500Y0065206D01*
X0009300Y0066005D02*
X0009782Y0066005D01*
X0009300Y0066803D02*
X0010581Y0066803D01*
X0011379Y0067602D02*
X0009300Y0067602D01*
X0009300Y0068401D02*
X0015855Y0068401D01*
X0016653Y0069199D02*
X0009300Y0069199D01*
X0009300Y0069998D02*
X0011580Y0069998D01*
X0012077Y0069500D02*
X0015723Y0069500D01*
X0018300Y0072077D01*
X0018300Y0075723D01*
X0015723Y0078300D01*
X0012077Y0078300D01*
X0009500Y0075723D01*
X0009500Y0072077D01*
X0012077Y0069500D01*
X0010781Y0070796D02*
X0009300Y0070796D01*
X0009300Y0071595D02*
X0009983Y0071595D01*
X0009500Y0072393D02*
X0009300Y0072393D01*
X0009300Y0073192D02*
X0009500Y0073192D01*
X0009500Y0073990D02*
X0009300Y0073990D01*
X0009300Y0074789D02*
X0009500Y0074789D01*
X0009500Y0075587D02*
X0009300Y0075587D01*
X0009300Y0076386D02*
X0010163Y0076386D01*
X0010962Y0077184D02*
X0009300Y0077184D01*
X0009300Y0077983D02*
X0011760Y0077983D01*
X0016040Y0077983D02*
X0021760Y0077983D01*
X0020962Y0077184D02*
X0016838Y0077184D01*
X0017637Y0076386D02*
X0020163Y0076386D01*
X0019500Y0075587D02*
X0018300Y0075587D01*
X0018300Y0074789D02*
X0019500Y0074789D01*
X0019500Y0073990D02*
X0018300Y0073990D01*
X0018300Y0073192D02*
X0019500Y0073192D01*
X0019500Y0072393D02*
X0018300Y0072393D01*
X0017817Y0071595D02*
X0019983Y0071595D01*
X0020781Y0070796D02*
X0017019Y0070796D01*
X0017452Y0069998D02*
X0016220Y0069998D01*
X0018900Y0068900D02*
X0013900Y0063900D01*
X0026003Y0058020D02*
X0050071Y0058020D01*
X0050071Y0057221D02*
X0026801Y0057221D01*
X0027600Y0056423D02*
X0050718Y0056423D01*
X0050071Y0055624D02*
X0028300Y0055624D01*
X0028300Y0054826D02*
X0050071Y0054826D01*
X0050071Y0054027D02*
X0028300Y0054027D01*
X0028300Y0053229D02*
X0050071Y0053229D01*
X0050071Y0052430D02*
X0028300Y0052430D01*
X0027854Y0051632D02*
X0050509Y0051632D01*
X0061400Y0041400D02*
X0058900Y0038900D01*
X0060603Y0038057D02*
X0072100Y0038057D01*
X0071458Y0037259D02*
X0071312Y0037259D01*
X0071399Y0038856D02*
X0061401Y0038856D01*
X0061458Y0037259D02*
X0059804Y0037259D01*
X0061250Y0036460D02*
X0046517Y0036460D01*
X0047315Y0035662D02*
X0061250Y0035662D01*
X0061250Y0034863D02*
X0048114Y0034863D01*
X0048912Y0034065D02*
X0061250Y0034065D01*
X0061250Y0033266D02*
X0049711Y0033266D01*
X0050509Y0032468D02*
X0051283Y0032468D01*
X0046350Y0029273D02*
X0044262Y0029273D01*
X0044706Y0028475D02*
X0047148Y0028475D01*
X0047947Y0027676D02*
X0044721Y0027676D01*
X0044721Y0026878D02*
X0048745Y0026878D01*
X0049708Y0026079D02*
X0044721Y0026079D01*
X0044721Y0025281D02*
X0050957Y0025281D01*
X0051157Y0024482D02*
X0038800Y0024482D01*
X0038800Y0023684D02*
X0038000Y0023684D01*
X0038000Y0023996D02*
X0038000Y0019157D01*
X0033294Y0019157D01*
X0032938Y0019253D01*
X0032619Y0019437D01*
X0032358Y0019698D01*
X0032174Y0020017D01*
X0032079Y0020373D01*
X0032079Y0023996D01*
X0038000Y0023996D01*
X0038000Y0024482D02*
X0028300Y0024482D01*
X0028300Y0023684D02*
X0032079Y0023684D01*
X0032079Y0022885D02*
X0028300Y0022885D01*
X0028300Y0022087D02*
X0032079Y0022087D01*
X0032079Y0021288D02*
X0027511Y0021288D01*
X0026712Y0020490D02*
X0032079Y0020490D01*
X0032365Y0019691D02*
X0025914Y0019691D01*
X0025723Y0018300D02*
X0022077Y0018300D01*
X0019500Y0015723D01*
X0019500Y0012077D01*
X0022077Y0009500D01*
X0025723Y0009500D01*
X0028300Y0012077D01*
X0028300Y0015723D01*
X0025723Y0018300D01*
X0025928Y0018094D02*
X0050957Y0018094D01*
X0050957Y0018893D02*
X0009300Y0018893D01*
X0009300Y0019691D02*
X0011886Y0019691D01*
X0011088Y0020490D02*
X0009300Y0020490D01*
X0009300Y0021288D02*
X0010289Y0021288D01*
X0009500Y0022087D02*
X0009300Y0022087D01*
X0009300Y0022885D02*
X0009500Y0022885D01*
X0009300Y0023684D02*
X0013500Y0023684D01*
X0013500Y0022885D02*
X0014300Y0022885D01*
X0014300Y0023500D02*
X0014300Y0019500D01*
X0015723Y0019500D01*
X0018300Y0022077D01*
X0018300Y0023500D01*
X0014300Y0023500D01*
X0014300Y0022087D02*
X0013500Y0022087D01*
X0013500Y0021288D02*
X0014300Y0021288D01*
X0014300Y0020490D02*
X0013500Y0020490D01*
X0013500Y0019691D02*
X0014300Y0019691D01*
X0015914Y0019691D02*
X0021886Y0019691D01*
X0021088Y0020490D02*
X0016712Y0020490D01*
X0017511Y0021288D02*
X0020289Y0021288D01*
X0019500Y0022087D02*
X0018300Y0022087D01*
X0018300Y0022885D02*
X0019500Y0022885D01*
X0027145Y0026878D02*
X0032079Y0026878D01*
X0032079Y0027676D02*
X0026346Y0027676D01*
X0027943Y0026079D02*
X0032079Y0026079D01*
X0032079Y0025281D02*
X0028300Y0025281D01*
X0026295Y0030072D02*
X0045551Y0030072D01*
X0044753Y0030870D02*
X0027093Y0030870D01*
X0027892Y0031669D02*
X0032395Y0031669D01*
X0032079Y0032468D02*
X0028300Y0032468D01*
X0028300Y0033266D02*
X0032079Y0033266D01*
X0032079Y0034065D02*
X0028300Y0034065D01*
X0028300Y0034863D02*
X0032079Y0034863D01*
X0032079Y0035662D02*
X0028300Y0035662D01*
X0027562Y0036460D02*
X0032079Y0036460D01*
X0032079Y0037259D02*
X0026764Y0037259D01*
X0025965Y0038057D02*
X0032079Y0038057D01*
X0032079Y0038856D02*
X0009300Y0038856D01*
X0025877Y0039654D02*
X0032079Y0039654D01*
X0031674Y0040453D02*
X0026675Y0040453D01*
X0027474Y0041251D02*
X0030876Y0041251D01*
X0030077Y0042050D02*
X0028272Y0042050D01*
X0044920Y0038057D02*
X0049100Y0038057D01*
X0049789Y0037259D02*
X0045718Y0037259D01*
X0038800Y0029273D02*
X0038000Y0029273D01*
X0038000Y0028475D02*
X0038800Y0028475D01*
X0038800Y0027676D02*
X0038000Y0027676D01*
X0038000Y0026878D02*
X0038800Y0026878D01*
X0038800Y0026079D02*
X0038000Y0026079D01*
X0038000Y0025281D02*
X0038800Y0025281D01*
X0038800Y0022885D02*
X0038000Y0022885D01*
X0038000Y0022087D02*
X0038800Y0022087D01*
X0038800Y0021288D02*
X0038000Y0021288D01*
X0038000Y0020490D02*
X0038800Y0020490D01*
X0038800Y0019691D02*
X0038000Y0019691D01*
X0044435Y0019691D02*
X0050957Y0019691D01*
X0050957Y0020490D02*
X0044721Y0020490D01*
X0044721Y0021288D02*
X0051173Y0021288D01*
X0055500Y0021288D02*
X0056300Y0021288D01*
X0056300Y0020490D02*
X0055500Y0020490D01*
X0055500Y0019691D02*
X0056300Y0019691D01*
X0056300Y0018893D02*
X0055500Y0018893D01*
X0055500Y0018094D02*
X0056300Y0018094D01*
X0056300Y0017296D02*
X0098100Y0017296D01*
X0098100Y0018094D02*
X0060843Y0018094D01*
X0060843Y0018893D02*
X0098640Y0018893D01*
X0098100Y0018353D02*
X0098100Y0016447D01*
X0099447Y0015100D01*
X0101353Y0015100D01*
X0101504Y0015251D01*
X0101654Y0015100D01*
X0101937Y0015100D01*
X0102718Y0014319D01*
X0105501Y0014319D01*
X0106275Y0015093D01*
X0107049Y0014319D01*
X0109832Y0014319D01*
X0110413Y0014900D01*
X0113044Y0014900D01*
X0113428Y0014516D01*
X0115980Y0014516D01*
X0116525Y0015061D01*
X0116692Y0014894D01*
X0117123Y0014645D01*
X0117605Y0014516D01*
X0118254Y0014516D01*
X0118254Y0016808D01*
X0118438Y0016808D01*
X0118438Y0016992D01*
X0120730Y0016992D01*
X0120730Y0017641D01*
X0120601Y0018122D01*
X0120352Y0018554D01*
X0120000Y0018906D01*
X0119568Y0019155D01*
X0119087Y0019284D01*
X0118438Y0019284D01*
X0118438Y0016992D01*
X0118254Y0016992D01*
X0118254Y0019284D01*
X0117605Y0019284D01*
X0117123Y0019155D01*
X0116692Y0018906D01*
X0116525Y0018739D01*
X0115980Y0019284D01*
X0113428Y0019284D01*
X0113044Y0018900D01*
X0110413Y0018900D01*
X0109832Y0019481D01*
X0107049Y0019481D01*
X0106275Y0018707D01*
X0105501Y0019481D01*
X0102718Y0019481D01*
X0102437Y0019200D01*
X0101853Y0019200D01*
X0101353Y0019700D01*
X0099447Y0019700D01*
X0098100Y0018353D01*
X0098100Y0016497D02*
X0060843Y0016497D01*
X0060843Y0015699D02*
X0098849Y0015699D01*
X0100400Y0017400D02*
X0101900Y0017400D01*
X0102400Y0016900D01*
X0104110Y0016900D01*
X0106089Y0018893D02*
X0106461Y0018893D01*
X0101361Y0019691D02*
X0121787Y0019691D01*
X0121787Y0018893D02*
X0120013Y0018893D01*
X0120609Y0018094D02*
X0121787Y0018094D01*
X0121787Y0017296D02*
X0120730Y0017296D01*
X0120730Y0016808D02*
X0118438Y0016808D01*
X0118438Y0014516D01*
X0119087Y0014516D01*
X0119568Y0014645D01*
X0120000Y0014894D01*
X0120352Y0015246D01*
X0120601Y0015678D01*
X0120730Y0016159D01*
X0120730Y0016808D01*
X0120730Y0016497D02*
X0121787Y0016497D01*
X0121787Y0015699D02*
X0120607Y0015699D01*
X0120006Y0014900D02*
X0121787Y0014900D01*
X0121787Y0014102D02*
X0060843Y0014102D01*
X0060843Y0014900D02*
X0102137Y0014900D01*
X0106082Y0014900D02*
X0106468Y0014900D01*
X0099439Y0019691D02*
X0075829Y0019691D01*
X0076392Y0020490D02*
X0121787Y0020490D01*
X0121787Y0021288D02*
X0076481Y0021288D01*
X0076481Y0022087D02*
X0121787Y0022087D01*
X0121787Y0022885D02*
X0076417Y0022885D01*
X0075923Y0023684D02*
X0121787Y0023684D01*
X0121787Y0024482D02*
X0076289Y0024482D01*
X0076481Y0025281D02*
X0121787Y0025281D01*
X0121787Y0026079D02*
X0076481Y0026079D01*
X0076481Y0026878D02*
X0121787Y0026878D01*
X0121787Y0027676D02*
X0076261Y0027676D01*
X0075700Y0028475D02*
X0121787Y0028475D01*
X0121787Y0029273D02*
X0075700Y0029273D01*
X0075731Y0030072D02*
X0077069Y0030072D01*
X0073900Y0028900D02*
X0070565Y0028900D01*
X0068615Y0026878D02*
X0068185Y0026878D01*
X0066235Y0028900D02*
X0062900Y0028900D01*
X0065481Y0026079D02*
X0071319Y0026079D01*
X0071319Y0025281D02*
X0065481Y0025281D01*
X0065289Y0024482D02*
X0071511Y0024482D01*
X0071877Y0023684D02*
X0064923Y0023684D01*
X0065417Y0022885D02*
X0071383Y0022885D01*
X0071319Y0022087D02*
X0065481Y0022087D01*
X0065481Y0021288D02*
X0071319Y0021288D01*
X0071408Y0020490D02*
X0065392Y0020490D01*
X0064829Y0019691D02*
X0071971Y0019691D01*
X0073808Y0019691D02*
X0073992Y0019691D01*
X0073992Y0020490D02*
X0073808Y0020490D01*
X0073808Y0021288D02*
X0073992Y0021288D01*
X0073900Y0026065D02*
X0073900Y0028900D01*
X0073900Y0033971D01*
X0073900Y0038900D01*
X0071400Y0041400D01*
X0061400Y0041400D01*
X0066342Y0037259D02*
X0066488Y0037259D01*
X0068675Y0037259D02*
X0069125Y0037259D01*
X0069125Y0036460D02*
X0068675Y0036460D01*
X0068675Y0035662D02*
X0069125Y0035662D01*
X0069125Y0034863D02*
X0068675Y0034863D01*
X0061250Y0032468D02*
X0060517Y0032468D01*
X0060843Y0031669D02*
X0061250Y0031669D01*
X0075700Y0038057D02*
X0093900Y0038057D01*
X0093900Y0037259D02*
X0086342Y0037259D01*
X0086550Y0036460D02*
X0093900Y0036460D01*
X0093900Y0035662D02*
X0086550Y0035662D01*
X0086550Y0034863D02*
X0093900Y0034863D01*
X0093900Y0034065D02*
X0086550Y0034065D01*
X0086550Y0033266D02*
X0093900Y0033266D01*
X0093900Y0032468D02*
X0086550Y0032468D01*
X0086550Y0031669D02*
X0093900Y0031669D01*
X0086530Y0030870D02*
X0106000Y0030870D01*
X0106261Y0030072D02*
X0085731Y0030072D01*
X0082069Y0030072D02*
X0080731Y0030072D01*
X0081342Y0037259D02*
X0081458Y0037259D01*
X0076458Y0037259D02*
X0076342Y0037259D01*
X0075700Y0038856D02*
X0093900Y0038856D01*
X0093900Y0039654D02*
X0075691Y0039654D01*
X0074893Y0040453D02*
X0093900Y0040453D01*
X0090748Y0041251D02*
X0074094Y0041251D01*
X0073296Y0042050D02*
X0089950Y0042050D01*
X0089929Y0042848D02*
X0072497Y0042848D01*
X0101400Y0043400D02*
X0101400Y0043900D01*
X0111200Y0039706D02*
X0119400Y0039706D01*
X0119400Y0031400D01*
X0111200Y0031400D01*
X0111200Y0039706D01*
X0111200Y0039654D02*
X0119400Y0039654D01*
X0119400Y0038856D02*
X0111200Y0038856D01*
X0111200Y0038057D02*
X0119400Y0038057D01*
X0119400Y0037259D02*
X0111200Y0037259D01*
X0111200Y0036460D02*
X0119400Y0036460D01*
X0119400Y0035662D02*
X0111200Y0035662D01*
X0111200Y0034863D02*
X0119400Y0034863D01*
X0119400Y0034065D02*
X0111200Y0034065D01*
X0111200Y0033266D02*
X0119400Y0033266D01*
X0119400Y0032468D02*
X0111200Y0032468D01*
X0111200Y0031669D02*
X0119400Y0031669D01*
X0115800Y0030870D02*
X0115000Y0030870D01*
X0115000Y0030072D02*
X0115800Y0030072D01*
X0116371Y0018893D02*
X0116679Y0018893D01*
X0118254Y0018893D02*
X0118438Y0018893D01*
X0118438Y0018094D02*
X0118254Y0018094D01*
X0118254Y0017296D02*
X0118438Y0017296D01*
X0118438Y0016497D02*
X0118254Y0016497D01*
X0118254Y0015699D02*
X0118438Y0015699D01*
X0118438Y0014900D02*
X0118254Y0014900D01*
X0116685Y0014900D02*
X0116364Y0014900D01*
X0121787Y0013303D02*
X0060488Y0013303D01*
X0056300Y0013303D02*
X0055500Y0013303D01*
X0055500Y0014102D02*
X0056300Y0014102D01*
X0056300Y0014900D02*
X0055500Y0014900D01*
X0055500Y0015699D02*
X0056300Y0015699D01*
X0056300Y0016497D02*
X0055500Y0016497D01*
X0055500Y0017296D02*
X0026727Y0017296D01*
X0027525Y0016497D02*
X0050957Y0016497D01*
X0050957Y0015699D02*
X0028300Y0015699D01*
X0028300Y0014900D02*
X0050957Y0014900D01*
X0050957Y0014102D02*
X0028300Y0014102D01*
X0028300Y0013303D02*
X0051312Y0013303D01*
X0060843Y0019691D02*
X0060971Y0019691D01*
X0062808Y0019691D02*
X0062992Y0019691D01*
X0062992Y0020490D02*
X0062808Y0020490D01*
X0062808Y0021288D02*
X0062992Y0021288D01*
X0060319Y0022087D02*
X0044721Y0022087D01*
X0044721Y0022885D02*
X0060383Y0022885D01*
X0060877Y0023684D02*
X0044721Y0023684D01*
X0028300Y0012505D02*
X0121787Y0012505D01*
X0121787Y0011706D02*
X0027929Y0011706D01*
X0027130Y0010908D02*
X0121787Y0010908D01*
X0121787Y0010109D02*
X0026332Y0010109D01*
X0021468Y0010109D02*
X0016332Y0010109D01*
X0015723Y0009500D02*
X0018300Y0012077D01*
X0018300Y0015723D01*
X0015723Y0018300D01*
X0012077Y0018300D01*
X0009500Y0015723D01*
X0009500Y0012077D01*
X0012077Y0009500D01*
X0015723Y0009500D01*
X0017130Y0010908D02*
X0020670Y0010908D01*
X0019871Y0011706D02*
X0017929Y0011706D01*
X0018300Y0012505D02*
X0019500Y0012505D01*
X0019500Y0013303D02*
X0018300Y0013303D01*
X0018300Y0014102D02*
X0019500Y0014102D01*
X0019500Y0014900D02*
X0018300Y0014900D01*
X0018300Y0015699D02*
X0019500Y0015699D01*
X0020275Y0016497D02*
X0017525Y0016497D01*
X0016727Y0017296D02*
X0021073Y0017296D01*
X0021872Y0018094D02*
X0015928Y0018094D01*
X0011872Y0018094D02*
X0009300Y0018094D01*
X0009300Y0017296D02*
X0011073Y0017296D01*
X0010275Y0016497D02*
X0009300Y0016497D01*
X0009300Y0015699D02*
X0009500Y0015699D01*
X0009500Y0014900D02*
X0009300Y0014900D01*
X0009300Y0014102D02*
X0009500Y0014102D01*
X0009500Y0013303D02*
X0009300Y0013303D01*
X0009300Y0012505D02*
X0009500Y0012505D01*
X0009300Y0011706D02*
X0009871Y0011706D01*
X0009300Y0010908D02*
X0010670Y0010908D01*
X0011468Y0010109D02*
X0009300Y0010109D01*
X0009300Y0009311D02*
X0121787Y0009311D01*
X0076967Y0062012D02*
X0075265Y0062012D01*
X0076064Y0062811D02*
X0077765Y0062811D01*
X0078564Y0063609D02*
X0076200Y0063609D01*
X0076200Y0064408D02*
X0079362Y0064408D01*
X0080161Y0065206D02*
X0075846Y0065206D01*
X0075700Y0066005D02*
X0090204Y0066005D01*
X0093829Y0063900D02*
X0081400Y0063900D01*
X0082744Y0066803D02*
X0079056Y0066803D01*
X0079855Y0067602D02*
X0081945Y0067602D01*
X0081600Y0068401D02*
X0080200Y0068401D01*
X0080700Y0069199D02*
X0081600Y0069199D01*
X0081745Y0069998D02*
X0080798Y0069998D01*
X0078900Y0069900D02*
X0077900Y0068900D01*
X0078900Y0069900D02*
X0078900Y0073829D01*
X0076525Y0077184D02*
X0076275Y0077184D01*
X0081275Y0077184D02*
X0081525Y0077184D01*
X0083900Y0073829D02*
X0083900Y0068900D01*
X0076744Y0066803D02*
X0075700Y0066803D01*
X0075700Y0067602D02*
X0075945Y0067602D01*
X0072100Y0066005D02*
X0057594Y0066005D01*
X0057871Y0065206D02*
X0071954Y0065206D01*
X0071600Y0064408D02*
X0057871Y0064408D01*
X0054196Y0064408D02*
X0053746Y0064408D01*
X0053746Y0065206D02*
X0054196Y0065206D01*
X0054196Y0066005D02*
X0053746Y0066005D01*
X0019500Y0054027D02*
X0014300Y0054027D01*
X0010655Y0026878D02*
X0009300Y0026878D01*
X0009300Y0026079D02*
X0009857Y0026079D01*
X0009500Y0025281D02*
X0009300Y0025281D01*
X0009300Y0024482D02*
X0009500Y0024482D01*
X0101650Y0069900D02*
X0104235Y0069900D01*
X0105909Y0067602D02*
X0106891Y0067602D01*
X0110240Y0067602D02*
X0113467Y0067602D01*
X0116191Y0067602D02*
X0117408Y0067602D01*
D20*
X0023900Y0063900D03*
X0013900Y0063900D03*
X0013900Y0053900D03*
X0023900Y0053900D03*
X0023900Y0043900D03*
X0013900Y0043900D03*
X0013900Y0033900D03*
X0023900Y0033900D03*
X0023900Y0023900D03*
X0013900Y0023900D03*
X0013900Y0013900D03*
X0023900Y0013900D03*
X0023900Y0073900D03*
X0013900Y0073900D03*
D21*
X0101400Y0043400D03*
X0101400Y0037400D03*
D22*
X0104900Y0036900D03*
X0104900Y0039900D03*
X0107900Y0039900D03*
X0097900Y0039900D03*
X0094400Y0039400D03*
X0089400Y0037900D03*
X0087900Y0041400D03*
X0087900Y0044900D03*
X0087900Y0048400D03*
X0079900Y0045400D03*
X0073400Y0042900D03*
X0068900Y0045900D03*
X0059900Y0045900D03*
X0058900Y0051400D03*
X0058900Y0056400D03*
X0063900Y0060900D03*
X0071400Y0065400D03*
X0073900Y0063900D03*
X0076900Y0063400D03*
X0080400Y0058900D03*
X0088400Y0055900D03*
X0089400Y0061400D03*
X0099400Y0057900D03*
X0102900Y0054400D03*
X0105400Y0052400D03*
X0098900Y0053400D03*
X0099400Y0047900D03*
X0103900Y0047900D03*
X0108400Y0047900D03*
X0104900Y0058900D03*
X0109900Y0060400D03*
X0106900Y0062400D03*
X0108275Y0066400D03*
X0113400Y0062900D03*
X0117400Y0061400D03*
X0114900Y0058900D03*
X0119900Y0058900D03*
X0120400Y0064400D03*
X0115775Y0066650D03*
X0121275Y0069900D03*
X0110400Y0076900D03*
X0120900Y0077900D03*
X0101650Y0069900D03*
X0099275Y0067400D03*
X0101400Y0062400D03*
X0088900Y0067400D03*
X0083900Y0068900D03*
X0080900Y0068400D03*
X0077900Y0068900D03*
X0071375Y0077900D03*
X0059900Y0071400D03*
X0059900Y0066400D03*
X0047900Y0066400D03*
X0044900Y0071400D03*
X0036900Y0066400D03*
X0029400Y0066400D03*
X0029400Y0071400D03*
X0029400Y0076900D03*
X0043400Y0077400D03*
X0057400Y0077400D03*
X0041400Y0060900D03*
X0034900Y0056400D03*
X0028900Y0058900D03*
X0018900Y0064900D03*
X0029900Y0051400D03*
X0033900Y0046400D03*
X0028900Y0041400D03*
X0029900Y0036400D03*
X0018900Y0035400D03*
X0018900Y0041400D03*
X0029400Y0028900D03*
X0029900Y0021400D03*
X0018900Y0021400D03*
X0018900Y0015400D03*
X0036400Y0010900D03*
X0047150Y0015025D03*
X0047900Y0021400D03*
X0047400Y0027400D03*
X0048900Y0036400D03*
X0051400Y0038900D03*
X0049400Y0041400D03*
X0041900Y0042900D03*
X0042900Y0046400D03*
X0049400Y0046900D03*
X0042900Y0051400D03*
X0049400Y0056400D03*
X0071400Y0053900D03*
X0074900Y0052400D03*
X0079900Y0039400D03*
X0069400Y0038900D03*
X0058900Y0036400D03*
X0068400Y0026400D03*
X0066400Y0021400D03*
X0077900Y0023900D03*
X0083650Y0019400D03*
X0091400Y0019900D03*
X0096150Y0015525D03*
X0100400Y0017400D03*
X0104025Y0020775D03*
X0103900Y0024900D03*
X0105400Y0028400D03*
X0110400Y0028400D03*
X0115400Y0028400D03*
X0120400Y0028400D03*
X0119900Y0023400D03*
X0115900Y0022900D03*
X0111275Y0020650D03*
X0121275Y0016900D03*
X0119400Y0010400D03*
X0112775Y0010025D03*
X0103900Y0009900D03*
X0096400Y0009900D03*
X0076550Y0009850D03*
X0095900Y0025400D03*
X0096400Y0027900D03*
X0100400Y0028900D03*
X0096400Y0031900D03*
X0091400Y0032400D03*
X0096400Y0035900D03*
X0101400Y0033900D03*
X0104900Y0033900D03*
X0091400Y0026400D03*
X0086900Y0027400D03*
X0081400Y0029900D03*
X0096025Y0072025D03*
X0097400Y0077400D03*
X0088900Y0077900D03*
D23*
X0097220Y0058900D02*
X0121887Y0058900D01*
X0121887Y0058200D01*
X0115700Y0058200D01*
X0115700Y0054200D01*
X0115100Y0054200D01*
X0115100Y0058200D01*
X0107229Y0058200D01*
X0106898Y0058111D01*
X0106602Y0057940D01*
X0106360Y0057698D01*
X0106189Y0057402D01*
X0106100Y0057071D01*
X0106100Y0054200D01*
X0115100Y0054200D01*
X0115100Y0053600D01*
X0115100Y0048191D01*
X0115700Y0048191D01*
X0115700Y0053600D01*
X0115100Y0053600D01*
X0106100Y0053600D01*
X0106100Y0050729D01*
X0106189Y0050398D01*
X0106360Y0050102D01*
X0106602Y0049860D01*
X0106898Y0049689D01*
X0107229Y0049600D01*
X0109500Y0049600D01*
X0109500Y0047870D01*
X0109616Y0047437D01*
X0109840Y0047050D01*
X0109909Y0046980D01*
X0109909Y0046945D01*
X0097544Y0046945D01*
X0097385Y0046879D01*
X0097541Y0047148D01*
X0097629Y0047479D01*
X0097629Y0048600D01*
X0094129Y0048600D01*
X0094129Y0049200D01*
X0093900Y0049200D01*
X0093900Y0051759D01*
X0096698Y0051759D01*
X0097220Y0052281D01*
X0097220Y0055519D01*
X0096698Y0056041D01*
X0093900Y0056041D01*
X0093900Y0056759D01*
X0096698Y0056759D01*
X0097220Y0057281D01*
X0097220Y0058900D01*
X0097220Y0058359D02*
X0121887Y0058359D01*
X0115700Y0057760D02*
X0115100Y0057760D01*
X0115100Y0057162D02*
X0115700Y0057162D01*
X0115700Y0056563D02*
X0115100Y0056563D01*
X0115100Y0055965D02*
X0115700Y0055965D01*
X0115700Y0055366D02*
X0115100Y0055366D01*
X0115100Y0054768D02*
X0115700Y0054768D01*
X0115100Y0054169D02*
X0097220Y0054169D01*
X0097220Y0053571D02*
X0106100Y0053571D01*
X0106100Y0052972D02*
X0097220Y0052972D01*
X0097220Y0052374D02*
X0106100Y0052374D01*
X0106100Y0051775D02*
X0096714Y0051775D01*
X0096500Y0051450D02*
X0096831Y0051361D01*
X0097127Y0051190D01*
X0097369Y0050948D01*
X0097541Y0050652D01*
X0097629Y0050321D01*
X0097629Y0049200D01*
X0094129Y0049200D01*
X0094129Y0051450D01*
X0096500Y0051450D01*
X0097141Y0051177D02*
X0106100Y0051177D01*
X0106140Y0050578D02*
X0097560Y0050578D01*
X0097629Y0049980D02*
X0106482Y0049980D01*
X0109500Y0049381D02*
X0097629Y0049381D01*
X0097629Y0048184D02*
X0109500Y0048184D01*
X0109500Y0048783D02*
X0094129Y0048783D01*
X0094129Y0049381D02*
X0093900Y0049381D01*
X0093900Y0049980D02*
X0094129Y0049980D01*
X0094129Y0050578D02*
X0093900Y0050578D01*
X0093900Y0051177D02*
X0094129Y0051177D01*
X0097220Y0054768D02*
X0106100Y0054768D01*
X0106100Y0055366D02*
X0097220Y0055366D01*
X0096774Y0055965D02*
X0106100Y0055965D01*
X0106100Y0056563D02*
X0093900Y0056563D01*
X0097100Y0057162D02*
X0106124Y0057162D01*
X0106422Y0057760D02*
X0097220Y0057760D01*
X0097629Y0047586D02*
X0109576Y0047586D01*
X0109902Y0046987D02*
X0097448Y0046987D01*
X0095984Y0041759D02*
X0093900Y0041759D01*
X0093900Y0028900D01*
X0121887Y0028900D01*
X0121887Y0029600D01*
X0115700Y0029600D01*
X0115700Y0033600D01*
X0115100Y0033600D01*
X0115100Y0029600D01*
X0107229Y0029600D01*
X0106898Y0029689D01*
X0106602Y0029860D01*
X0106360Y0030102D01*
X0106189Y0030398D01*
X0106100Y0030729D01*
X0106100Y0033600D01*
X0115100Y0033600D01*
X0115100Y0034200D01*
X0115100Y0039609D01*
X0115700Y0039609D01*
X0115700Y0034200D01*
X0115100Y0034200D01*
X0106100Y0034200D01*
X0106100Y0037071D01*
X0106189Y0037402D01*
X0106360Y0037698D01*
X0106602Y0037940D01*
X0106898Y0038111D01*
X0107229Y0038200D01*
X0109500Y0038200D01*
X0109500Y0039930D01*
X0109616Y0040362D01*
X0109840Y0040750D01*
X0109909Y0040820D01*
X0109909Y0040855D01*
X0102006Y0040855D01*
X0097544Y0040855D01*
X0096425Y0041319D01*
X0095984Y0041759D01*
X0096143Y0041601D02*
X0093900Y0041601D01*
X0093900Y0041002D02*
X0097189Y0041002D01*
X0098785Y0039773D02*
X0098614Y0039477D01*
X0098525Y0039146D01*
X0098525Y0037700D01*
X0101100Y0037700D01*
X0101100Y0040275D01*
X0099654Y0040275D01*
X0099323Y0040186D01*
X0099027Y0040015D01*
X0098785Y0039773D01*
X0098817Y0039805D02*
X0093900Y0039805D01*
X0093900Y0040403D02*
X0109640Y0040403D01*
X0109500Y0039805D02*
X0103983Y0039805D01*
X0104015Y0039773D02*
X0103773Y0040015D01*
X0103477Y0040186D01*
X0103146Y0040275D01*
X0101700Y0040275D01*
X0101700Y0037700D01*
X0101100Y0037700D01*
X0101100Y0037100D01*
X0101700Y0037100D01*
X0101700Y0037700D01*
X0104275Y0037700D01*
X0104275Y0039146D01*
X0104186Y0039477D01*
X0104015Y0039773D01*
X0104259Y0039206D02*
X0109500Y0039206D01*
X0109500Y0038608D02*
X0104275Y0038608D01*
X0104275Y0038009D02*
X0106722Y0038009D01*
X0106194Y0037411D02*
X0101700Y0037411D01*
X0101700Y0037100D02*
X0104275Y0037100D01*
X0104275Y0035654D01*
X0104186Y0035323D01*
X0104015Y0035027D01*
X0103773Y0034785D01*
X0103477Y0034614D01*
X0103146Y0034525D01*
X0101700Y0034525D01*
X0101700Y0037100D01*
X0101700Y0036812D02*
X0101100Y0036812D01*
X0101100Y0037100D02*
X0101100Y0034525D01*
X0099654Y0034525D01*
X0099323Y0034614D01*
X0099027Y0034785D01*
X0098785Y0035027D01*
X0098614Y0035323D01*
X0098525Y0035654D01*
X0098525Y0037100D01*
X0101100Y0037100D01*
X0101100Y0037411D02*
X0093900Y0037411D01*
X0093900Y0038009D02*
X0098525Y0038009D01*
X0098525Y0038608D02*
X0093900Y0038608D01*
X0093900Y0039206D02*
X0098541Y0039206D01*
X0101100Y0039206D02*
X0101700Y0039206D01*
X0101700Y0038608D02*
X0101100Y0038608D01*
X0101100Y0038009D02*
X0101700Y0038009D01*
X0101700Y0036214D02*
X0101100Y0036214D01*
X0101100Y0035615D02*
X0101700Y0035615D01*
X0101700Y0035017D02*
X0101100Y0035017D01*
X0098795Y0035017D02*
X0093900Y0035017D01*
X0093900Y0035615D02*
X0098536Y0035615D01*
X0098525Y0036214D02*
X0093900Y0036214D01*
X0093900Y0036812D02*
X0098525Y0036812D01*
X0093900Y0034418D02*
X0106100Y0034418D01*
X0106100Y0035017D02*
X0104005Y0035017D01*
X0104264Y0035615D02*
X0106100Y0035615D01*
X0106100Y0036214D02*
X0104275Y0036214D01*
X0104275Y0036812D02*
X0106100Y0036812D01*
X0106100Y0033221D02*
X0093900Y0033221D01*
X0093900Y0032623D02*
X0106100Y0032623D01*
X0106100Y0032024D02*
X0093900Y0032024D01*
X0093900Y0031426D02*
X0106100Y0031426D01*
X0106100Y0030827D02*
X0093900Y0030827D01*
X0093900Y0030229D02*
X0106286Y0030229D01*
X0107116Y0029630D02*
X0093900Y0029630D01*
X0093900Y0029032D02*
X0121887Y0029032D01*
X0115700Y0029630D02*
X0115100Y0029630D01*
X0115100Y0030229D02*
X0115700Y0030229D01*
X0115700Y0030827D02*
X0115100Y0030827D01*
X0115100Y0031426D02*
X0115700Y0031426D01*
X0115700Y0032024D02*
X0115100Y0032024D01*
X0115100Y0032623D02*
X0115700Y0032623D01*
X0115700Y0033221D02*
X0115100Y0033221D01*
X0115100Y0033820D02*
X0093900Y0033820D01*
X0101100Y0039805D02*
X0101700Y0039805D01*
X0115100Y0039206D02*
X0115700Y0039206D01*
X0115700Y0038608D02*
X0115100Y0038608D01*
X0115100Y0038009D02*
X0115700Y0038009D01*
X0115700Y0037411D02*
X0115100Y0037411D01*
X0115100Y0036812D02*
X0115700Y0036812D01*
X0115700Y0036214D02*
X0115100Y0036214D01*
X0115100Y0035615D02*
X0115700Y0035615D01*
X0115700Y0035017D02*
X0115100Y0035017D01*
X0115100Y0034418D02*
X0115700Y0034418D01*
X0115700Y0048783D02*
X0115100Y0048783D01*
X0115100Y0049381D02*
X0115700Y0049381D01*
X0115700Y0049980D02*
X0115100Y0049980D01*
X0115100Y0050578D02*
X0115700Y0050578D01*
X0115700Y0051177D02*
X0115100Y0051177D01*
X0115100Y0051775D02*
X0115700Y0051775D01*
X0115700Y0052374D02*
X0115100Y0052374D01*
X0115100Y0052972D02*
X0115700Y0052972D01*
X0115700Y0053571D02*
X0115100Y0053571D01*
D24*
X0111400Y0043900D02*
X0101400Y0043900D01*
X0098150Y0043900D01*
D25*
X0093829Y0043900D01*
X0057888Y0028400D02*
X0055900Y0028412D01*
X0057888Y0028400D02*
X0050900Y0028400D01*
X0042896Y0036404D01*
X0038400Y0036404D01*
X0038400Y0037404D01*
X0030904Y0044900D01*
X0024900Y0044900D01*
X0023900Y0043900D01*
D26*
X0057888Y0028400D02*
X0061400Y0028400D01*
X0062900Y0029900D01*
X0063900Y0030900D01*
X0063900Y0033971D01*
X0062900Y0029900D02*
X0062900Y0028900D01*
X0062900Y0026065D01*
D27*
X0108440Y0016900D02*
X0114704Y0016900D01*
D28*
X0114829Y0069900D02*
X0108565Y0069900D01*
M02*
