G75*
%MOIN*%
%OFA0B0*%
%FSLAX25Y25*%
%IPPOS*%
%LPD*%
%AMOC8*
5,1,8,0,0,1.08239X$1,22.5*
%
%ADD10C,0.00000*%
%ADD11R,0.16000X0.06000*%
%ADD12OC8,0.06000*%
%ADD13C,0.00800*%
%ADD14C,0.01800*%
D10*
X0007400Y0007400D02*
X0007400Y0080400D01*
X0123687Y0080400D01*
X0123687Y0007400D01*
X0007400Y0007400D01*
D11*
X0115400Y0033900D03*
X0115400Y0053900D03*
D12*
X0023900Y0053900D03*
X0013900Y0053900D03*
X0013900Y0043900D03*
X0023900Y0043900D03*
X0023900Y0033900D03*
X0013900Y0033900D03*
X0013900Y0023900D03*
X0023900Y0023900D03*
X0023900Y0013900D03*
X0013900Y0013900D03*
X0013900Y0063900D03*
X0023900Y0063900D03*
X0023900Y0073900D03*
X0013900Y0073900D03*
D13*
X0018300Y0073990D02*
X0019500Y0073990D01*
X0019500Y0073192D02*
X0018300Y0073192D01*
X0018300Y0072393D02*
X0019500Y0072393D01*
X0019500Y0072077D02*
X0022077Y0069500D01*
X0025723Y0069500D01*
X0028300Y0072077D01*
X0028300Y0075723D01*
X0025723Y0078300D01*
X0022077Y0078300D01*
X0019500Y0075723D01*
X0019500Y0072077D01*
X0019983Y0071595D02*
X0017817Y0071595D01*
X0018300Y0072077D02*
X0015723Y0069500D01*
X0012077Y0069500D01*
X0009500Y0072077D01*
X0009500Y0075723D01*
X0012077Y0078300D01*
X0015723Y0078300D01*
X0018300Y0075723D01*
X0018300Y0072077D01*
X0017019Y0070796D02*
X0020781Y0070796D01*
X0021580Y0069998D02*
X0016220Y0069998D01*
X0015723Y0068300D02*
X0012077Y0068300D01*
X0009500Y0065723D01*
X0009500Y0062077D01*
X0012077Y0059500D01*
X0015723Y0059500D01*
X0018300Y0062077D01*
X0018300Y0065723D01*
X0015723Y0068300D01*
X0016421Y0067602D02*
X0021379Y0067602D01*
X0022077Y0068300D02*
X0019500Y0065723D01*
X0019500Y0062077D01*
X0022077Y0059500D01*
X0025723Y0059500D01*
X0028300Y0062077D01*
X0028300Y0062100D01*
X0067146Y0062100D01*
X0072146Y0067100D01*
X0076447Y0067100D01*
X0076947Y0066600D01*
X0078853Y0066600D01*
X0080200Y0067947D01*
X0080200Y0069853D01*
X0078853Y0071200D01*
X0076947Y0071200D01*
X0076447Y0070700D01*
X0070654Y0070700D01*
X0065654Y0065700D01*
X0028300Y0065700D01*
X0028300Y0065723D01*
X0025723Y0068300D01*
X0022077Y0068300D01*
X0020581Y0066803D02*
X0017219Y0066803D01*
X0018018Y0066005D02*
X0019782Y0066005D01*
X0019500Y0065206D02*
X0018300Y0065206D01*
X0018300Y0064408D02*
X0019500Y0064408D01*
X0019500Y0063609D02*
X0018300Y0063609D01*
X0018300Y0062811D02*
X0019500Y0062811D01*
X0019565Y0062012D02*
X0018235Y0062012D01*
X0017436Y0061214D02*
X0020364Y0061214D01*
X0021162Y0060415D02*
X0016638Y0060415D01*
X0015839Y0059617D02*
X0021961Y0059617D01*
X0022077Y0058300D02*
X0019500Y0055723D01*
X0019500Y0052077D01*
X0022077Y0049500D01*
X0025723Y0049500D01*
X0028300Y0052077D01*
X0028300Y0052100D01*
X0064646Y0052100D01*
X0074146Y0061600D01*
X0074853Y0061600D01*
X0076200Y0062947D01*
X0076200Y0064853D01*
X0074853Y0066200D01*
X0072947Y0066200D01*
X0071600Y0064853D01*
X0071600Y0064146D01*
X0063154Y0055700D01*
X0028300Y0055700D01*
X0028300Y0055723D01*
X0025723Y0058300D01*
X0022077Y0058300D01*
X0021797Y0058020D02*
X0016003Y0058020D01*
X0015723Y0058300D02*
X0014300Y0058300D01*
X0014300Y0054300D01*
X0013500Y0054300D01*
X0013500Y0058300D01*
X0012077Y0058300D01*
X0009500Y0055723D01*
X0009500Y0054300D01*
X0013500Y0054300D01*
X0013500Y0053500D01*
X0009500Y0053500D01*
X0009500Y0052077D01*
X0012077Y0049500D01*
X0013500Y0049500D01*
X0013500Y0053500D01*
X0014300Y0053500D01*
X0014300Y0054300D01*
X0018300Y0054300D01*
X0018300Y0055723D01*
X0015723Y0058300D01*
X0014300Y0058020D02*
X0013500Y0058020D01*
X0013500Y0057221D02*
X0014300Y0057221D01*
X0014300Y0056423D02*
X0013500Y0056423D01*
X0013500Y0055624D02*
X0014300Y0055624D01*
X0014300Y0054826D02*
X0013500Y0054826D01*
X0013500Y0054027D02*
X0009300Y0054027D01*
X0009300Y0053229D02*
X0009500Y0053229D01*
X0009500Y0052430D02*
X0009300Y0052430D01*
X0009300Y0051632D02*
X0009946Y0051632D01*
X0009300Y0050833D02*
X0010744Y0050833D01*
X0011543Y0050035D02*
X0009300Y0050035D01*
X0009300Y0049236D02*
X0069600Y0049236D01*
X0069600Y0048438D02*
X0009300Y0048438D01*
X0009300Y0047639D02*
X0011417Y0047639D01*
X0012077Y0048300D02*
X0009500Y0045723D01*
X0009500Y0042077D01*
X0012077Y0039500D01*
X0015723Y0039500D01*
X0018300Y0042077D01*
X0018300Y0045723D01*
X0015723Y0048300D01*
X0012077Y0048300D01*
X0013500Y0050035D02*
X0014300Y0050035D01*
X0014300Y0049500D02*
X0015723Y0049500D01*
X0018300Y0052077D01*
X0018300Y0053500D01*
X0014300Y0053500D01*
X0014300Y0049500D01*
X0014300Y0050833D02*
X0013500Y0050833D01*
X0013500Y0051632D02*
X0014300Y0051632D01*
X0014300Y0052430D02*
X0013500Y0052430D01*
X0013500Y0053229D02*
X0014300Y0053229D01*
X0014300Y0054027D02*
X0019500Y0054027D01*
X0019500Y0053229D02*
X0018300Y0053229D01*
X0018300Y0052430D02*
X0019500Y0052430D01*
X0019946Y0051632D02*
X0017854Y0051632D01*
X0017056Y0050833D02*
X0020744Y0050833D01*
X0021543Y0050035D02*
X0016257Y0050035D01*
X0016383Y0047639D02*
X0021417Y0047639D01*
X0022077Y0048300D02*
X0019500Y0045723D01*
X0019500Y0042077D01*
X0020877Y0040700D01*
X0018154Y0040700D01*
X0017100Y0039646D01*
X0015738Y0038284D01*
X0015723Y0038300D01*
X0012077Y0038300D01*
X0009500Y0035723D01*
X0009500Y0032077D01*
X0012077Y0029500D01*
X0015723Y0029500D01*
X0018300Y0032077D01*
X0018300Y0035723D01*
X0018284Y0035738D01*
X0019646Y0037100D01*
X0020877Y0037100D01*
X0019500Y0035723D01*
X0019500Y0032077D01*
X0022077Y0029500D01*
X0025723Y0029500D01*
X0028300Y0032077D01*
X0028300Y0032100D01*
X0061146Y0032100D01*
X0073200Y0044154D01*
X0073200Y0052447D01*
X0073700Y0052947D01*
X0073700Y0054853D01*
X0072353Y0056200D01*
X0070447Y0056200D01*
X0069100Y0054853D01*
X0069100Y0052947D01*
X0069600Y0052447D01*
X0069600Y0045646D01*
X0059654Y0035700D01*
X0028300Y0035700D01*
X0028300Y0035723D01*
X0026923Y0037100D01*
X0049947Y0037100D01*
X0050447Y0036600D01*
X0052353Y0036600D01*
X0053700Y0037947D01*
X0053700Y0039853D01*
X0052353Y0041200D01*
X0050447Y0041200D01*
X0049947Y0040700D01*
X0026923Y0040700D01*
X0028300Y0042077D01*
X0028300Y0045723D01*
X0025723Y0048300D01*
X0022077Y0048300D01*
X0020618Y0046841D02*
X0017182Y0046841D01*
X0017980Y0046042D02*
X0019820Y0046042D01*
X0019500Y0045244D02*
X0018300Y0045244D01*
X0018300Y0044445D02*
X0019500Y0044445D01*
X0019500Y0043647D02*
X0018300Y0043647D01*
X0018300Y0042848D02*
X0019500Y0042848D01*
X0019528Y0042050D02*
X0018272Y0042050D01*
X0017474Y0041251D02*
X0020326Y0041251D01*
X0017907Y0040453D02*
X0016675Y0040453D01*
X0017109Y0039654D02*
X0015877Y0039654D01*
X0016310Y0038856D02*
X0009300Y0038856D01*
X0009300Y0039654D02*
X0011923Y0039654D01*
X0011125Y0040453D02*
X0009300Y0040453D01*
X0009300Y0041251D02*
X0010326Y0041251D01*
X0009528Y0042050D02*
X0009300Y0042050D01*
X0009300Y0042848D02*
X0009500Y0042848D01*
X0009500Y0043647D02*
X0009300Y0043647D01*
X0009300Y0044445D02*
X0009500Y0044445D01*
X0009500Y0045244D02*
X0009300Y0045244D01*
X0009300Y0046042D02*
X0009820Y0046042D01*
X0009300Y0046841D02*
X0010618Y0046841D01*
X0023900Y0053900D02*
X0063900Y0053900D01*
X0073900Y0063900D01*
X0071600Y0064408D02*
X0069454Y0064408D01*
X0070252Y0065206D02*
X0071954Y0065206D01*
X0072752Y0066005D02*
X0071051Y0066005D01*
X0071849Y0066803D02*
X0076744Y0066803D01*
X0075048Y0066005D02*
X0082100Y0066005D01*
X0082100Y0066803D02*
X0079056Y0066803D01*
X0079855Y0067602D02*
X0081945Y0067602D01*
X0082100Y0067447D02*
X0082100Y0057146D01*
X0075654Y0050700D01*
X0074600Y0049646D01*
X0074600Y0029646D01*
X0070654Y0025700D01*
X0028300Y0025700D01*
X0028300Y0025723D01*
X0025723Y0028300D01*
X0022077Y0028300D01*
X0019500Y0025723D01*
X0019500Y0022077D01*
X0020877Y0020700D01*
X0018154Y0020700D01*
X0017100Y0019646D01*
X0015738Y0018284D01*
X0015723Y0018300D01*
X0012077Y0018300D01*
X0009500Y0015723D01*
X0009500Y0012077D01*
X0012077Y0009500D01*
X0015723Y0009500D01*
X0018300Y0012077D01*
X0018300Y0015723D01*
X0018284Y0015738D01*
X0019646Y0017100D01*
X0020877Y0017100D01*
X0019500Y0015723D01*
X0019500Y0012077D01*
X0022077Y0009500D01*
X0025723Y0009500D01*
X0028300Y0012077D01*
X0028300Y0015600D01*
X0098947Y0015600D01*
X0099447Y0015100D01*
X0101353Y0015100D01*
X0102700Y0016447D01*
X0102700Y0018353D01*
X0101353Y0019700D01*
X0099447Y0019700D01*
X0098947Y0019200D01*
X0081746Y0019200D01*
X0085700Y0023154D01*
X0085700Y0047154D01*
X0098200Y0059654D01*
X0098200Y0067654D01*
X0098646Y0068100D01*
X0100197Y0068100D01*
X0100697Y0067600D01*
X0102603Y0067600D01*
X0103950Y0068947D01*
X0103950Y0070853D01*
X0102603Y0072200D01*
X0100697Y0072200D01*
X0100197Y0071700D01*
X0097154Y0071700D01*
X0095654Y0070200D01*
X0094600Y0069146D01*
X0094600Y0061146D01*
X0083154Y0049700D01*
X0082100Y0048646D01*
X0082100Y0024646D01*
X0078154Y0020700D01*
X0026923Y0020700D01*
X0028300Y0022077D01*
X0028300Y0022100D01*
X0072146Y0022100D01*
X0078200Y0028154D01*
X0078200Y0048154D01*
X0085700Y0055654D01*
X0085700Y0067447D01*
X0086200Y0067947D01*
X0086200Y0069853D01*
X0084853Y0071200D01*
X0082947Y0071200D01*
X0081600Y0069853D01*
X0081600Y0067947D01*
X0082100Y0067447D01*
X0081600Y0068401D02*
X0080200Y0068401D01*
X0080200Y0069199D02*
X0081600Y0069199D01*
X0081745Y0069998D02*
X0080055Y0069998D01*
X0079257Y0070796D02*
X0082543Y0070796D01*
X0085257Y0070796D02*
X0096250Y0070796D01*
X0095452Y0069998D02*
X0086055Y0069998D01*
X0086200Y0069199D02*
X0094653Y0069199D01*
X0094600Y0068401D02*
X0086200Y0068401D01*
X0085855Y0067602D02*
X0094600Y0067602D01*
X0094600Y0066803D02*
X0085700Y0066803D01*
X0085700Y0066005D02*
X0094600Y0066005D01*
X0094600Y0065206D02*
X0085700Y0065206D01*
X0085700Y0064408D02*
X0094600Y0064408D01*
X0094600Y0063609D02*
X0085700Y0063609D01*
X0085700Y0062811D02*
X0094600Y0062811D01*
X0094600Y0062012D02*
X0085700Y0062012D01*
X0085700Y0061214D02*
X0094600Y0061214D01*
X0093870Y0060415D02*
X0085700Y0060415D01*
X0085700Y0059617D02*
X0093071Y0059617D01*
X0092273Y0058818D02*
X0085700Y0058818D01*
X0085700Y0058020D02*
X0091474Y0058020D01*
X0090676Y0057221D02*
X0085700Y0057221D01*
X0085700Y0056423D02*
X0089877Y0056423D01*
X0089079Y0055624D02*
X0085670Y0055624D01*
X0084871Y0054826D02*
X0088280Y0054826D01*
X0087482Y0054027D02*
X0084073Y0054027D01*
X0083274Y0053229D02*
X0086683Y0053229D01*
X0085885Y0052430D02*
X0082476Y0052430D01*
X0081677Y0051632D02*
X0085086Y0051632D01*
X0084288Y0050833D02*
X0080879Y0050833D01*
X0080080Y0050035D02*
X0083489Y0050035D01*
X0082691Y0049236D02*
X0079282Y0049236D01*
X0078483Y0048438D02*
X0082100Y0048438D01*
X0082100Y0047639D02*
X0078200Y0047639D01*
X0078200Y0046841D02*
X0082100Y0046841D01*
X0082100Y0046042D02*
X0078200Y0046042D01*
X0078200Y0045244D02*
X0082100Y0045244D01*
X0082100Y0044445D02*
X0078200Y0044445D01*
X0078200Y0043647D02*
X0082100Y0043647D01*
X0082100Y0042848D02*
X0078200Y0042848D01*
X0078200Y0042050D02*
X0082100Y0042050D01*
X0082100Y0041251D02*
X0078200Y0041251D01*
X0078200Y0040453D02*
X0082100Y0040453D01*
X0082100Y0039654D02*
X0078200Y0039654D01*
X0078200Y0038856D02*
X0082100Y0038856D01*
X0082100Y0038057D02*
X0078200Y0038057D01*
X0078200Y0037259D02*
X0082100Y0037259D01*
X0082100Y0036460D02*
X0078200Y0036460D01*
X0078200Y0035662D02*
X0082100Y0035662D01*
X0082100Y0034863D02*
X0078200Y0034863D01*
X0078200Y0034065D02*
X0082100Y0034065D01*
X0082100Y0033266D02*
X0078200Y0033266D01*
X0078200Y0032468D02*
X0082100Y0032468D01*
X0082100Y0031669D02*
X0078200Y0031669D01*
X0078200Y0030870D02*
X0082100Y0030870D01*
X0082100Y0030072D02*
X0078200Y0030072D01*
X0078200Y0029273D02*
X0082100Y0029273D01*
X0082100Y0028475D02*
X0078200Y0028475D01*
X0077722Y0027676D02*
X0082100Y0027676D01*
X0082100Y0026878D02*
X0076924Y0026878D01*
X0076125Y0026079D02*
X0082100Y0026079D01*
X0082100Y0025281D02*
X0075326Y0025281D01*
X0074528Y0024482D02*
X0081937Y0024482D01*
X0081138Y0023684D02*
X0073729Y0023684D01*
X0072931Y0022885D02*
X0080340Y0022885D01*
X0079541Y0022087D02*
X0028300Y0022087D01*
X0027511Y0021288D02*
X0078743Y0021288D01*
X0078900Y0018900D02*
X0018900Y0018900D01*
X0013900Y0013900D01*
X0009871Y0011706D02*
X0009300Y0011706D01*
X0009300Y0010908D02*
X0010670Y0010908D01*
X0011468Y0010109D02*
X0009300Y0010109D01*
X0009300Y0009311D02*
X0121787Y0009311D01*
X0121787Y0009300D02*
X0009300Y0009300D01*
X0009300Y0078500D01*
X0121787Y0078500D01*
X0121787Y0058300D01*
X0115800Y0058300D01*
X0115800Y0054300D01*
X0115000Y0054300D01*
X0115000Y0058300D01*
X0107216Y0058300D01*
X0106860Y0058205D01*
X0106540Y0058020D01*
X0096565Y0058020D01*
X0095767Y0057221D02*
X0106037Y0057221D01*
X0106000Y0057084D02*
X0106095Y0057440D01*
X0106280Y0057760D01*
X0106540Y0058020D01*
X0106000Y0057084D02*
X0106000Y0054300D01*
X0115000Y0054300D01*
X0115000Y0053500D01*
X0115800Y0053500D01*
X0115800Y0049500D01*
X0121787Y0049500D01*
X0121787Y0038300D01*
X0115800Y0038300D01*
X0115800Y0034300D01*
X0115000Y0034300D01*
X0115000Y0038300D01*
X0107216Y0038300D01*
X0106860Y0038205D01*
X0106540Y0038020D01*
X0106280Y0037760D01*
X0106095Y0037440D01*
X0106000Y0037084D01*
X0106000Y0034300D01*
X0115000Y0034300D01*
X0115000Y0033500D01*
X0115800Y0033500D01*
X0115800Y0029500D01*
X0121787Y0029500D01*
X0121787Y0009300D01*
X0121787Y0010109D02*
X0026332Y0010109D01*
X0027130Y0010908D02*
X0121787Y0010908D01*
X0121787Y0011706D02*
X0027929Y0011706D01*
X0028300Y0012505D02*
X0121787Y0012505D01*
X0121787Y0013303D02*
X0028300Y0013303D01*
X0028300Y0014102D02*
X0121787Y0014102D01*
X0121787Y0014900D02*
X0028300Y0014900D01*
X0027400Y0017400D02*
X0100400Y0017400D01*
X0102700Y0017296D02*
X0121787Y0017296D01*
X0121787Y0018094D02*
X0102700Y0018094D01*
X0102160Y0018893D02*
X0121787Y0018893D01*
X0121787Y0019691D02*
X0101361Y0019691D01*
X0099439Y0019691D02*
X0082237Y0019691D01*
X0083035Y0020490D02*
X0121787Y0020490D01*
X0121787Y0021288D02*
X0083834Y0021288D01*
X0084632Y0022087D02*
X0121787Y0022087D01*
X0121787Y0022885D02*
X0085431Y0022885D01*
X0085700Y0023684D02*
X0121787Y0023684D01*
X0121787Y0024482D02*
X0085700Y0024482D01*
X0085700Y0025281D02*
X0121787Y0025281D01*
X0121787Y0026079D02*
X0085700Y0026079D01*
X0085700Y0026878D02*
X0121787Y0026878D01*
X0121787Y0027676D02*
X0085700Y0027676D01*
X0085700Y0028475D02*
X0121787Y0028475D01*
X0121787Y0029273D02*
X0085700Y0029273D01*
X0085700Y0030072D02*
X0106261Y0030072D01*
X0106280Y0030040D02*
X0106540Y0029780D01*
X0106860Y0029595D01*
X0107216Y0029500D01*
X0115000Y0029500D01*
X0115000Y0033500D01*
X0106000Y0033500D01*
X0106000Y0030716D01*
X0106095Y0030360D01*
X0106280Y0030040D01*
X0106000Y0030870D02*
X0085700Y0030870D01*
X0085700Y0031669D02*
X0106000Y0031669D01*
X0106000Y0032468D02*
X0085700Y0032468D01*
X0085700Y0033266D02*
X0106000Y0033266D01*
X0106000Y0034863D02*
X0085700Y0034863D01*
X0085700Y0034065D02*
X0115000Y0034065D01*
X0115000Y0034863D02*
X0115800Y0034863D01*
X0115800Y0035662D02*
X0115000Y0035662D01*
X0115000Y0036460D02*
X0115800Y0036460D01*
X0115800Y0037259D02*
X0115000Y0037259D01*
X0115000Y0038057D02*
X0115800Y0038057D01*
X0121787Y0038856D02*
X0085700Y0038856D01*
X0085700Y0039654D02*
X0121787Y0039654D01*
X0121787Y0040453D02*
X0085700Y0040453D01*
X0085700Y0041251D02*
X0121787Y0041251D01*
X0121787Y0042050D02*
X0085700Y0042050D01*
X0085700Y0042848D02*
X0121787Y0042848D01*
X0121787Y0043647D02*
X0085700Y0043647D01*
X0085700Y0044445D02*
X0121787Y0044445D01*
X0121787Y0045244D02*
X0085700Y0045244D01*
X0085700Y0046042D02*
X0121787Y0046042D01*
X0121787Y0046841D02*
X0085700Y0046841D01*
X0086185Y0047639D02*
X0121787Y0047639D01*
X0121787Y0048438D02*
X0086983Y0048438D01*
X0087782Y0049236D02*
X0121787Y0049236D01*
X0115800Y0050035D02*
X0115000Y0050035D01*
X0115000Y0049500D02*
X0115000Y0053500D01*
X0106000Y0053500D01*
X0106000Y0050716D01*
X0106095Y0050360D01*
X0106280Y0050040D01*
X0106540Y0049780D01*
X0106860Y0049595D01*
X0107216Y0049500D01*
X0115000Y0049500D01*
X0115000Y0050833D02*
X0115800Y0050833D01*
X0115800Y0051632D02*
X0115000Y0051632D01*
X0115000Y0052430D02*
X0115800Y0052430D01*
X0115800Y0053229D02*
X0115000Y0053229D01*
X0115000Y0054027D02*
X0092573Y0054027D01*
X0091774Y0053229D02*
X0106000Y0053229D01*
X0106000Y0052430D02*
X0090976Y0052430D01*
X0090177Y0051632D02*
X0106000Y0051632D01*
X0106000Y0050833D02*
X0089379Y0050833D01*
X0088580Y0050035D02*
X0106285Y0050035D01*
X0106000Y0054826D02*
X0093371Y0054826D01*
X0094170Y0055624D02*
X0106000Y0055624D01*
X0106000Y0056423D02*
X0094968Y0056423D01*
X0097364Y0058818D02*
X0121787Y0058818D01*
X0121787Y0059617D02*
X0098162Y0059617D01*
X0098200Y0060415D02*
X0121787Y0060415D01*
X0121787Y0061214D02*
X0098200Y0061214D01*
X0098200Y0062012D02*
X0121787Y0062012D01*
X0121787Y0062811D02*
X0098200Y0062811D01*
X0098200Y0063609D02*
X0121787Y0063609D01*
X0121787Y0064408D02*
X0098200Y0064408D01*
X0098200Y0065206D02*
X0121787Y0065206D01*
X0121787Y0066005D02*
X0098200Y0066005D01*
X0098200Y0066803D02*
X0121787Y0066803D01*
X0121787Y0067602D02*
X0102605Y0067602D01*
X0103403Y0068401D02*
X0121787Y0068401D01*
X0121787Y0069199D02*
X0103950Y0069199D01*
X0103950Y0069998D02*
X0121787Y0069998D01*
X0121787Y0070796D02*
X0103950Y0070796D01*
X0103208Y0071595D02*
X0121787Y0071595D01*
X0121787Y0072393D02*
X0028300Y0072393D01*
X0028300Y0073192D02*
X0121787Y0073192D01*
X0121787Y0073990D02*
X0028300Y0073990D01*
X0028300Y0074789D02*
X0121787Y0074789D01*
X0121787Y0075587D02*
X0028300Y0075587D01*
X0027637Y0076386D02*
X0121787Y0076386D01*
X0121787Y0077184D02*
X0026838Y0077184D01*
X0026040Y0077983D02*
X0121787Y0077983D01*
X0101650Y0069900D02*
X0097900Y0069900D01*
X0096400Y0068400D01*
X0096400Y0060400D01*
X0083900Y0047900D01*
X0083900Y0023900D01*
X0078900Y0018900D01*
X0071400Y0023900D02*
X0076400Y0028900D01*
X0076400Y0048900D01*
X0083900Y0056400D01*
X0083900Y0068900D01*
X0082100Y0065206D02*
X0075846Y0065206D01*
X0076200Y0064408D02*
X0082100Y0064408D01*
X0082100Y0063609D02*
X0076200Y0063609D01*
X0076064Y0062811D02*
X0082100Y0062811D01*
X0082100Y0062012D02*
X0075265Y0062012D01*
X0073759Y0061214D02*
X0082100Y0061214D01*
X0082100Y0060415D02*
X0072961Y0060415D01*
X0072162Y0059617D02*
X0082100Y0059617D01*
X0082100Y0058818D02*
X0071364Y0058818D01*
X0070565Y0058020D02*
X0082100Y0058020D01*
X0082100Y0057221D02*
X0069767Y0057221D01*
X0068968Y0056423D02*
X0081377Y0056423D01*
X0080579Y0055624D02*
X0072928Y0055624D01*
X0073700Y0054826D02*
X0079780Y0054826D01*
X0078982Y0054027D02*
X0073700Y0054027D01*
X0073700Y0053229D02*
X0078183Y0053229D01*
X0077385Y0052430D02*
X0073200Y0052430D01*
X0073200Y0051632D02*
X0076586Y0051632D01*
X0075788Y0050833D02*
X0073200Y0050833D01*
X0073200Y0050035D02*
X0074989Y0050035D01*
X0074600Y0049236D02*
X0073200Y0049236D01*
X0073200Y0048438D02*
X0074600Y0048438D01*
X0074600Y0047639D02*
X0073200Y0047639D01*
X0073200Y0046841D02*
X0074600Y0046841D01*
X0074600Y0046042D02*
X0073200Y0046042D01*
X0073200Y0045244D02*
X0074600Y0045244D01*
X0074600Y0044445D02*
X0073200Y0044445D01*
X0072692Y0043647D02*
X0074600Y0043647D01*
X0074600Y0042848D02*
X0071894Y0042848D01*
X0071095Y0042050D02*
X0074600Y0042050D01*
X0074600Y0041251D02*
X0070297Y0041251D01*
X0069498Y0040453D02*
X0074600Y0040453D01*
X0074600Y0039654D02*
X0068700Y0039654D01*
X0067901Y0038856D02*
X0074600Y0038856D01*
X0074600Y0038057D02*
X0067103Y0038057D01*
X0066304Y0037259D02*
X0074600Y0037259D01*
X0074600Y0036460D02*
X0065506Y0036460D01*
X0064707Y0035662D02*
X0074600Y0035662D01*
X0074600Y0034863D02*
X0063909Y0034863D01*
X0063110Y0034065D02*
X0074600Y0034065D01*
X0074600Y0033266D02*
X0062312Y0033266D01*
X0061513Y0032468D02*
X0074600Y0032468D01*
X0074600Y0031669D02*
X0027892Y0031669D01*
X0027093Y0030870D02*
X0074600Y0030870D01*
X0074600Y0030072D02*
X0026295Y0030072D01*
X0026346Y0027676D02*
X0072631Y0027676D01*
X0071832Y0026878D02*
X0027145Y0026878D01*
X0027943Y0026079D02*
X0071034Y0026079D01*
X0071400Y0023900D02*
X0023900Y0023900D01*
X0019500Y0023684D02*
X0014300Y0023684D01*
X0014300Y0023500D02*
X0014300Y0024300D01*
X0013500Y0024300D01*
X0013500Y0028300D01*
X0012077Y0028300D01*
X0009500Y0025723D01*
X0009500Y0024300D01*
X0013500Y0024300D01*
X0013500Y0023500D01*
X0009500Y0023500D01*
X0009500Y0022077D01*
X0012077Y0019500D01*
X0013500Y0019500D01*
X0013500Y0023500D01*
X0014300Y0023500D01*
X0018300Y0023500D01*
X0018300Y0022077D01*
X0015723Y0019500D01*
X0014300Y0019500D01*
X0014300Y0023500D01*
X0014300Y0022885D02*
X0013500Y0022885D01*
X0013500Y0022087D02*
X0014300Y0022087D01*
X0014300Y0021288D02*
X0013500Y0021288D01*
X0013500Y0020490D02*
X0014300Y0020490D01*
X0014300Y0019691D02*
X0013500Y0019691D01*
X0011886Y0019691D02*
X0009300Y0019691D01*
X0009300Y0018893D02*
X0016347Y0018893D01*
X0015914Y0019691D02*
X0017146Y0019691D01*
X0016712Y0020490D02*
X0017944Y0020490D01*
X0017511Y0021288D02*
X0020289Y0021288D01*
X0019500Y0022087D02*
X0018300Y0022087D01*
X0018300Y0022885D02*
X0019500Y0022885D01*
X0019500Y0024482D02*
X0018300Y0024482D01*
X0018300Y0024300D02*
X0018300Y0025723D01*
X0015723Y0028300D01*
X0014300Y0028300D01*
X0014300Y0024300D01*
X0018300Y0024300D01*
X0018300Y0025281D02*
X0019500Y0025281D01*
X0019857Y0026079D02*
X0017943Y0026079D01*
X0017145Y0026878D02*
X0020655Y0026878D01*
X0021454Y0027676D02*
X0016346Y0027676D01*
X0014300Y0027676D02*
X0013500Y0027676D01*
X0013500Y0026878D02*
X0014300Y0026878D01*
X0014300Y0026079D02*
X0013500Y0026079D01*
X0013500Y0025281D02*
X0014300Y0025281D01*
X0014300Y0024482D02*
X0013500Y0024482D01*
X0013500Y0023684D02*
X0009300Y0023684D01*
X0009300Y0024482D02*
X0009500Y0024482D01*
X0009500Y0025281D02*
X0009300Y0025281D01*
X0009300Y0026079D02*
X0009857Y0026079D01*
X0009300Y0026878D02*
X0010655Y0026878D01*
X0011454Y0027676D02*
X0009300Y0027676D01*
X0009300Y0028475D02*
X0073429Y0028475D01*
X0074228Y0029273D02*
X0009300Y0029273D01*
X0009300Y0030072D02*
X0011505Y0030072D01*
X0010707Y0030870D02*
X0009300Y0030870D01*
X0009300Y0031669D02*
X0009908Y0031669D01*
X0009500Y0032468D02*
X0009300Y0032468D01*
X0009300Y0033266D02*
X0009500Y0033266D01*
X0009500Y0034065D02*
X0009300Y0034065D01*
X0009300Y0034863D02*
X0009500Y0034863D01*
X0009500Y0035662D02*
X0009300Y0035662D01*
X0009300Y0036460D02*
X0010238Y0036460D01*
X0011036Y0037259D02*
X0009300Y0037259D01*
X0009300Y0038057D02*
X0011835Y0038057D01*
X0013900Y0033900D02*
X0018900Y0038900D01*
X0051400Y0038900D01*
X0053011Y0037259D02*
X0061213Y0037259D01*
X0062012Y0038057D02*
X0053700Y0038057D01*
X0053700Y0038856D02*
X0062810Y0038856D01*
X0063609Y0039654D02*
X0053700Y0039654D01*
X0053100Y0040453D02*
X0064407Y0040453D01*
X0065206Y0041251D02*
X0027474Y0041251D01*
X0028272Y0042050D02*
X0066004Y0042050D01*
X0066803Y0042848D02*
X0028300Y0042848D01*
X0028300Y0043647D02*
X0067601Y0043647D01*
X0068400Y0044445D02*
X0028300Y0044445D01*
X0028300Y0045244D02*
X0069198Y0045244D01*
X0069600Y0046042D02*
X0027980Y0046042D01*
X0027182Y0046841D02*
X0069600Y0046841D01*
X0069600Y0047639D02*
X0026383Y0047639D01*
X0026257Y0050035D02*
X0069600Y0050035D01*
X0069600Y0050833D02*
X0027056Y0050833D01*
X0027854Y0051632D02*
X0069600Y0051632D01*
X0069600Y0052430D02*
X0064976Y0052430D01*
X0065774Y0053229D02*
X0069100Y0053229D01*
X0069100Y0054027D02*
X0066573Y0054027D01*
X0067371Y0054826D02*
X0069100Y0054826D01*
X0069872Y0055624D02*
X0068170Y0055624D01*
X0071400Y0053900D02*
X0071400Y0044900D01*
X0060400Y0033900D01*
X0023900Y0033900D01*
X0019500Y0034065D02*
X0018300Y0034065D01*
X0018300Y0034863D02*
X0019500Y0034863D01*
X0019500Y0035662D02*
X0018300Y0035662D01*
X0019006Y0036460D02*
X0020238Y0036460D01*
X0019500Y0033266D02*
X0018300Y0033266D01*
X0018300Y0032468D02*
X0019500Y0032468D01*
X0019908Y0031669D02*
X0017892Y0031669D01*
X0017093Y0030870D02*
X0020707Y0030870D01*
X0021505Y0030072D02*
X0016295Y0030072D01*
X0027562Y0036460D02*
X0060414Y0036460D01*
X0085700Y0036460D02*
X0106000Y0036460D01*
X0106000Y0035662D02*
X0085700Y0035662D01*
X0085700Y0037259D02*
X0106047Y0037259D01*
X0106604Y0038057D02*
X0085700Y0038057D01*
X0115000Y0033266D02*
X0115800Y0033266D01*
X0115800Y0032468D02*
X0115000Y0032468D01*
X0115000Y0031669D02*
X0115800Y0031669D01*
X0115800Y0030870D02*
X0115000Y0030870D01*
X0115000Y0030072D02*
X0115800Y0030072D01*
X0121787Y0016497D02*
X0102700Y0016497D01*
X0101951Y0015699D02*
X0121787Y0015699D01*
X0115800Y0054826D02*
X0115000Y0054826D01*
X0115000Y0055624D02*
X0115800Y0055624D01*
X0115800Y0056423D02*
X0115000Y0056423D01*
X0115000Y0057221D02*
X0115800Y0057221D01*
X0115800Y0058020D02*
X0115000Y0058020D01*
X0100695Y0067602D02*
X0098200Y0067602D01*
X0097049Y0071595D02*
X0027817Y0071595D01*
X0027019Y0070796D02*
X0076543Y0070796D01*
X0077900Y0068900D02*
X0071400Y0068900D01*
X0066400Y0063900D01*
X0023900Y0063900D01*
X0027436Y0061214D02*
X0068668Y0061214D01*
X0067870Y0060415D02*
X0026638Y0060415D01*
X0025839Y0059617D02*
X0067071Y0059617D01*
X0066273Y0058818D02*
X0009300Y0058818D01*
X0009300Y0058020D02*
X0011797Y0058020D01*
X0010999Y0057221D02*
X0009300Y0057221D01*
X0009300Y0056423D02*
X0010200Y0056423D01*
X0009500Y0055624D02*
X0009300Y0055624D01*
X0009300Y0054826D02*
X0009500Y0054826D01*
X0009300Y0059617D02*
X0011961Y0059617D01*
X0011162Y0060415D02*
X0009300Y0060415D01*
X0009300Y0061214D02*
X0010364Y0061214D01*
X0009565Y0062012D02*
X0009300Y0062012D01*
X0009300Y0062811D02*
X0009500Y0062811D01*
X0009500Y0063609D02*
X0009300Y0063609D01*
X0009300Y0064408D02*
X0009500Y0064408D01*
X0009500Y0065206D02*
X0009300Y0065206D01*
X0009300Y0066005D02*
X0009782Y0066005D01*
X0009300Y0066803D02*
X0010581Y0066803D01*
X0011379Y0067602D02*
X0009300Y0067602D01*
X0009300Y0068401D02*
X0068355Y0068401D01*
X0069153Y0069199D02*
X0009300Y0069199D01*
X0009300Y0069998D02*
X0011580Y0069998D01*
X0010781Y0070796D02*
X0009300Y0070796D01*
X0009300Y0071595D02*
X0009983Y0071595D01*
X0009500Y0072393D02*
X0009300Y0072393D01*
X0009300Y0073192D02*
X0009500Y0073192D01*
X0009500Y0073990D02*
X0009300Y0073990D01*
X0009300Y0074789D02*
X0009500Y0074789D01*
X0009500Y0075587D02*
X0009300Y0075587D01*
X0009300Y0076386D02*
X0010163Y0076386D01*
X0010962Y0077184D02*
X0009300Y0077184D01*
X0009300Y0077983D02*
X0011760Y0077983D01*
X0016040Y0077983D02*
X0021760Y0077983D01*
X0020962Y0077184D02*
X0016838Y0077184D01*
X0017637Y0076386D02*
X0020163Y0076386D01*
X0019500Y0075587D02*
X0018300Y0075587D01*
X0018300Y0074789D02*
X0019500Y0074789D01*
X0026220Y0069998D02*
X0069952Y0069998D01*
X0067556Y0067602D02*
X0026421Y0067602D01*
X0027219Y0066803D02*
X0066758Y0066803D01*
X0065959Y0066005D02*
X0028018Y0066005D01*
X0028235Y0062012D02*
X0069467Y0062012D01*
X0070265Y0062811D02*
X0067857Y0062811D01*
X0068655Y0063609D02*
X0071064Y0063609D01*
X0065474Y0058020D02*
X0026003Y0058020D01*
X0026801Y0057221D02*
X0064676Y0057221D01*
X0063877Y0056423D02*
X0027600Y0056423D01*
X0020999Y0057221D02*
X0016801Y0057221D01*
X0017600Y0056423D02*
X0020200Y0056423D01*
X0019500Y0055624D02*
X0018300Y0055624D01*
X0018300Y0054826D02*
X0019500Y0054826D01*
X0009500Y0022885D02*
X0009300Y0022885D01*
X0009300Y0022087D02*
X0009500Y0022087D01*
X0009300Y0021288D02*
X0010289Y0021288D01*
X0011088Y0020490D02*
X0009300Y0020490D01*
X0009300Y0018094D02*
X0011872Y0018094D01*
X0011073Y0017296D02*
X0009300Y0017296D01*
X0009300Y0016497D02*
X0010275Y0016497D01*
X0009500Y0015699D02*
X0009300Y0015699D01*
X0009300Y0014900D02*
X0009500Y0014900D01*
X0009500Y0014102D02*
X0009300Y0014102D01*
X0009300Y0013303D02*
X0009500Y0013303D01*
X0009500Y0012505D02*
X0009300Y0012505D01*
X0016332Y0010109D02*
X0021468Y0010109D01*
X0020670Y0010908D02*
X0017130Y0010908D01*
X0017929Y0011706D02*
X0019871Y0011706D01*
X0019500Y0012505D02*
X0018300Y0012505D01*
X0018300Y0013303D02*
X0019500Y0013303D01*
X0019500Y0014102D02*
X0018300Y0014102D01*
X0018300Y0014900D02*
X0019500Y0014900D01*
X0019500Y0015699D02*
X0018300Y0015699D01*
X0019043Y0016497D02*
X0020275Y0016497D01*
X0023900Y0013900D02*
X0027400Y0017400D01*
D14*
X0029900Y0021400D03*
X0018900Y0021400D03*
X0018900Y0015400D03*
X0036400Y0010900D03*
X0047150Y0015025D03*
X0047900Y0021400D03*
X0047400Y0027400D03*
X0048900Y0036400D03*
X0051400Y0038900D03*
X0049400Y0041400D03*
X0041900Y0042900D03*
X0042900Y0046400D03*
X0049400Y0046900D03*
X0042900Y0051400D03*
X0049400Y0056400D03*
X0041400Y0060900D03*
X0034900Y0056400D03*
X0028900Y0058900D03*
X0018900Y0064900D03*
X0029400Y0066400D03*
X0036900Y0066400D03*
X0029400Y0071400D03*
X0029400Y0076900D03*
X0043400Y0077400D03*
X0044900Y0071400D03*
X0047900Y0066400D03*
X0059900Y0066400D03*
X0059900Y0071400D03*
X0057400Y0077400D03*
X0071375Y0077900D03*
X0077900Y0068900D03*
X0080900Y0068400D03*
X0083900Y0068900D03*
X0088900Y0067400D03*
X0096025Y0072025D03*
X0101650Y0069900D03*
X0099275Y0067400D03*
X0101400Y0062400D03*
X0104900Y0058900D03*
X0109900Y0060400D03*
X0106900Y0062400D03*
X0108275Y0066400D03*
X0113400Y0062900D03*
X0117400Y0061400D03*
X0114900Y0058900D03*
X0119900Y0058900D03*
X0120400Y0064400D03*
X0115775Y0066650D03*
X0121275Y0069900D03*
X0110400Y0076900D03*
X0120900Y0077900D03*
X0097400Y0077400D03*
X0088900Y0077900D03*
X0071400Y0065400D03*
X0073900Y0063900D03*
X0076900Y0063400D03*
X0080400Y0058900D03*
X0088400Y0055900D03*
X0089400Y0061400D03*
X0099400Y0057900D03*
X0102900Y0054400D03*
X0105400Y0052400D03*
X0098900Y0053400D03*
X0099400Y0047900D03*
X0103900Y0047900D03*
X0108400Y0047900D03*
X0107900Y0039900D03*
X0104900Y0039900D03*
X0104900Y0036900D03*
X0104900Y0033900D03*
X0101400Y0033900D03*
X0096400Y0031900D03*
X0091400Y0032400D03*
X0096400Y0035900D03*
X0094400Y0039400D03*
X0097900Y0039900D03*
X0089400Y0037900D03*
X0087900Y0041400D03*
X0087900Y0044900D03*
X0087900Y0048400D03*
X0079900Y0045400D03*
X0073400Y0042900D03*
X0068900Y0045900D03*
X0059900Y0045900D03*
X0058900Y0051400D03*
X0058900Y0056400D03*
X0063900Y0060900D03*
X0071400Y0053900D03*
X0074900Y0052400D03*
X0079900Y0039400D03*
X0069400Y0038900D03*
X0058900Y0036400D03*
X0068400Y0026400D03*
X0066400Y0021400D03*
X0077900Y0023900D03*
X0083650Y0019400D03*
X0091400Y0019900D03*
X0096150Y0015525D03*
X0100400Y0017400D03*
X0104025Y0020775D03*
X0103900Y0024900D03*
X0105400Y0028400D03*
X0110400Y0028400D03*
X0115400Y0028400D03*
X0120400Y0028400D03*
X0119900Y0023400D03*
X0115900Y0022900D03*
X0111275Y0020650D03*
X0121275Y0016900D03*
X0119400Y0010400D03*
X0112775Y0010025D03*
X0103900Y0009900D03*
X0096400Y0009900D03*
X0076550Y0009850D03*
X0095900Y0025400D03*
X0096400Y0027900D03*
X0100400Y0028900D03*
X0091400Y0026400D03*
X0086900Y0027400D03*
X0081400Y0029900D03*
X0033900Y0046400D03*
X0028900Y0041400D03*
X0029900Y0036400D03*
X0018900Y0035400D03*
X0018900Y0041400D03*
X0029900Y0051400D03*
X0029400Y0028900D03*
M02*
