M48
;FILE_FORMAT=3:3
METRIC,TZ,000.000
FMAT,2
T01C0.254
T02C1.016
%
T01
X4801Y3912
X4801Y5436
X7595Y5436
X7468Y7341
X4801Y8992
X4801Y10516
X7341Y10516
X8611Y11786
X10643Y10897
X10897Y11786
X12548Y11913
X10897Y13056
X12548Y14326
X10516Y15469
X8865Y14326
X7341Y14961
X4801Y16485
X7468Y16866
X9373Y16866
X7468Y18136
X7468Y19533
X11024Y19660
X11405Y18136
X12167Y16866
X15215Y16866
X15215Y18136
X14580Y19660
X18129Y19787
X19787Y17501
X20549Y17374
X21311Y17501
X22581Y17120
X24390Y18294
X25819Y17755
X25216Y17120
X25756Y15850
X26645Y14961
X27915Y15342
X27153Y15850
X27502Y16866
X28804Y15977
X29820Y15596
X30455Y14961
X29185Y14961
X30582Y16358
X29407Y16929
X30804Y17755
X28042Y19533
X30709Y19787
X24740Y19660
X22581Y19787
X18136Y16612
X18771Y16231
X19533Y16104
X20422Y14961
X22454Y14199
X22708Y15596
X25248Y14707
X26137Y13818
X26772Y13310
X25121Y13564
X25248Y12167
X26391Y12167
X27534Y12167
X27407Y10135
X26645Y10135
X26645Y9373
X26645Y8611
X25756Y8611
X24486Y9119
X24486Y8103
X23216Y8230
X24486Y7087
X24359Y6452
X23216Y6706
X22073Y6960
X20676Y7595
X19787Y6071
X21247Y4928
X23216Y5055
X24422Y3943
X25502Y4420
X26422Y5277
X26391Y6325
X26772Y7214
X28042Y7214
X29312Y7214
X30582Y7214
X30455Y5944
X29439Y5817
X28264Y5245
X30804Y4293
X30328Y2642
X28645Y2546
X26391Y2515
X24486Y2515
X19444Y2502
X16866Y5436
X17374Y6706
X14961Y9246
X13056Y9881
X12548Y10516
X12421Y9246
X12040Y6960
X12167Y5436
X11976Y3816
X9246Y2769
X7595Y9246
X7595Y13056
X14961Y13056
X14961Y14326
X16231Y15469
X18136Y13691
X19025Y13310
X17501Y11659
X18644Y10897
X17628Y9881
X20295Y10008
X22327Y10516
X22327Y11405
X22327Y12294
X20295Y11532
X22708Y9627
X23978Y10008
X24867Y10135
X25502Y7341
X15215Y11659
T02
X3531Y18771
X6071Y18771
X6071Y16231
X3531Y16231
X3531Y13691
X6071Y13691
X6071Y11151
X3531Y11151
X3531Y8611
X6071Y8611
X6071Y6071
X3531Y6071
X3531Y3531
X6071Y3531
M30
