G75*
%MOIN*%
%OFA0B0*%
%FSLAX25Y25*%
%IPPOS*%
%LPD*%
%AMOC8*
5,1,8,0,0,1.08239X$1,22.5*
%
%ADD10C,0.00000*%
%ADD11C,0.00600*%
D10*
X0007400Y0007400D02*
X0007400Y0080400D01*
X0123687Y0080400D01*
X0123687Y0007400D01*
X0007400Y0007400D01*
D11*
X0011400Y0008900D02*
X0026400Y0008900D01*
X0028900Y0011400D01*
X0028900Y0016400D01*
X0026400Y0018900D01*
X0011400Y0018900D01*
X0008900Y0021400D01*
X0008900Y0026400D01*
X0011400Y0028900D01*
X0026400Y0028900D01*
X0028900Y0031400D01*
X0028900Y0036400D01*
X0026400Y0038900D01*
X0011400Y0038900D01*
X0008900Y0041400D01*
X0008900Y0046400D01*
X0011400Y0048900D01*
X0026400Y0048900D01*
X0028900Y0051400D01*
X0028900Y0056400D01*
X0026400Y0058900D01*
X0011400Y0058900D01*
X0008900Y0061400D01*
X0008900Y0066400D01*
X0011400Y0068900D01*
X0008900Y0071400D01*
X0008900Y0076400D01*
X0011400Y0078900D01*
X0026400Y0078900D01*
X0028900Y0076400D01*
X0028900Y0071400D01*
X0026400Y0068900D01*
X0011400Y0068900D01*
X0026400Y0068900D02*
X0028900Y0066400D01*
X0028900Y0061400D01*
X0026400Y0058900D01*
X0011400Y0058900D02*
X0008900Y0056400D01*
X0008900Y0051400D01*
X0011400Y0048900D01*
X0026400Y0048900D02*
X0028900Y0046400D01*
X0028900Y0041400D01*
X0026400Y0038900D01*
X0011400Y0038900D02*
X0008900Y0036400D01*
X0008900Y0031400D01*
X0011400Y0028900D01*
X0026400Y0028900D02*
X0028900Y0026400D01*
X0028900Y0021400D01*
X0026400Y0018900D01*
X0011400Y0018900D02*
X0008900Y0016400D01*
X0008900Y0011400D01*
X0011400Y0008900D01*
M02*
